<?xml version="1.0" standalone="no"?>
<!DOCTYPE svg PUBLIC "-//W3C//DTD SVG 20010904//EN"
 "http://www.w3.org/TR/2001/REC-SVG-20010904/DTD/svg10.dtd">
<svg version="1.0" xmlns="http://www.w3.org/2000/svg"
 width="1920.000000pt" height="1080.000000pt" viewBox="0 0 1920.000000 1080.000000"
 preserveAspectRatio="xMidYMid meet">

<g transform="translate(0.000000,1080.000000) scale(0.100000,-0.100000)"
fill="#000000" stroke="none">
<path d="M2 10133 l3 -668 30 -2 c17 -1 147 -7 290 -13 143 -6 341 -15 440
-21 99 -5 277 -14 395 -19 194 -9 438 -25 530 -35 33 -3 139 -10 310 -20 41
-3 131 -7 200 -10 69 -2 152 -7 185 -10 33 -3 114 -8 180 -10 66 -3 131 -7
145 -10 14 -3 61 -8 105 -10 100 -4 95 -3 95 -13 0 -5 -14 -8 -30 -7 -17 1
-33 -2 -36 -7 -3 -4 -10 -5 -16 -2 -6 4 -28 9 -50 11 l-39 5 3 -69 3 -68 59 0
c40 0 66 5 79 16 23 18 57 14 57 -6 0 -7 7 -16 16 -19 23 -9 64 -7 64 2 0 5 7
9 15 9 8 0 15 -3 15 -7 0 -12 58 -10 67 2 15 20 1 113 -17 114 -8 1 -17 3 -20
4 -21 8 -69 5 -86 -6 -18 -11 -24 -10 -42 6 -11 10 -23 16 -26 13 -3 -4 -6 -1
-6 5 0 9 29 11 108 7 59 -3 166 -7 237 -10 72 -3 164 -7 205 -9 41 -3 145 -8
230 -12 85 -4 171 -8 190 -9 48 -4 232 -14 370 -20 63 -3 144 -7 180 -10 36
-3 124 -7 195 -10 72 -3 146 -8 165 -10 19 -3 91 -7 160 -10 69 -3 154 -8 190
-10 36 -3 112 -8 170 -10 58 -3 161 -8 230 -11 69 -4 145 -7 170 -8 25 0 48
-5 52 -10 5 -6 8 -77 7 -158 0 -81 3 -153 7 -159 7 -12 -33 -11 -441 7 -66 3
-151 7 -190 8 -38 2 -78 7 -87 10 -9 4 -26 3 -37 -4 -18 -9 -21 -8 -21 9 0 14
5 18 20 14 11 -3 26 -3 34 0 13 5 13 11 -1 46 -17 43 -53 63 -53 30 0 -10 -5
-19 -10 -19 -6 0 -9 -17 -8 -37 l3 -38 -84 2 c-83 3 -117 15 -104 37 15 23 12
44 -7 61 -16 14 -25 16 -43 8 -15 -7 -27 -7 -38 0 -24 15 -49 1 -49 -27 0 -30
-30 -43 -47 -20 -13 18 -8 38 8 28 5 -3 8 0 7 8 -5 23 -39 30 -59 12 -11 -10
-19 -23 -19 -30 0 -21 -20 -27 -27 -9 -3 10 0 21 7 25 7 4 9 13 6 19 -9 14
-36 15 -36 1 0 -5 -6 -10 -14 -10 -21 0 -26 -25 -10 -55 8 -15 14 -29 14 -32
0 -6 -112 -2 -124 5 -4 2 -3 8 4 12 20 13 16 88 -6 105 -24 18 -51 19 -57 3
-4 -10 -7 -10 -18 0 -7 6 -24 12 -37 12 -20 0 -23 -4 -19 -22 4 -14 -1 -33
-13 -48 -17 -23 -17 -26 -3 -42 15 -17 14 -18 -5 -18 -12 0 -22 3 -22 8 0 4
-18 6 -40 4 -38 -4 -40 -3 -41 24 -2 84 -22 121 -52 99 -9 -6 -14 -15 -10 -18
3 -4 2 -7 -4 -7 -6 0 -16 7 -23 15 -14 17 -65 20 -75 5 -14 -22 -7 -81 11
-101 19 -21 19 -21 -11 -17 -25 2 -29 7 -27 26 3 18 -2 22 -22 22 -19 0 -24
-4 -19 -16 7 -18 -14 -35 -34 -27 -12 5 -12 8 -1 22 36 43 11 111 -42 111 -22
0 -29 -6 -37 -34 -8 -26 -8 -41 2 -60 8 -14 10 -28 6 -30 -3 -3 -36 -3 -71 -1
-36 2 -77 3 -92 4 -24 1 -26 4 -26 44 1 23 -2 52 -6 63 -6 21 -39 35 -63 27
-11 -4 -6 -40 9 -59 5 -7 2 -16 -7 -24 -8 -7 -15 -18 -15 -26 0 -7 -9 -12 -19
-11 -11 0 -17 5 -15 9 3 5 11 6 17 2 7 -3 1 3 -13 15 -14 11 -35 19 -46 16
-16 -2 -21 1 -19 13 1 10 -4 30 -12 45 -12 24 -19 28 -51 25 -20 -2 -37 -6
-36 -10 0 -4 -2 -28 -6 -52 -4 -25 -3 -43 1 -41 3 3 12 -2 18 -9 10 -12 0 -14
-68 -14 -45 1 -81 5 -81 9 0 5 -15 6 -32 3 -32 -6 -32 -6 -13 11 11 9 15 14 8
10 -9 -4 -11 3 -8 25 2 16 -1 30 -6 30 -5 0 -11 11 -15 25 -9 37 -58 35 -78
-3 -12 -24 -12 -32 0 -61 18 -42 18 -41 -7 -41 -16 0 -19 4 -14 19 7 25 -30
50 -48 32 -12 -12 -38 -15 -36 -3 1 4 0 10 -1 15 -5 16 -8 28 -9 47 0 10 -11
25 -23 31 -18 10 -24 8 -35 -6 -12 -17 -14 -17 -31 -2 -27 25 -72 22 -72 -3 0
-11 5 -20 10 -20 6 0 10 -5 10 -11 0 -5 -4 -8 -9 -5 -10 6 -21 -26 -21 -62 0
-22 -3 -23 -51 -18 -46 5 -81 16 -52 16 6 0 10 8 8 18 -2 9 -4 31 -4 49 -2 55
-57 87 -93 54 -13 -12 -20 -99 -9 -106 6 -3 9 -11 6 -16 -7 -11 -95 -12 -95
-1 -8 147 -23 165 -89 108 -13 -12 -21 -16 -18 -10 10 18 -28 47 -52 39 -12
-3 -21 -11 -21 -16 0 -16 -25 -10 -40 11 -18 25 -47 26 -74 3 -13 -11 -16 -12
-9 -3 9 13 6 15 -23 17 -19 2 -40 4 -46 5 -9 2 -12 -9 -10 -35 2 -26 -3 -46
-18 -64 -16 -20 -18 -28 -8 -35 9 -5 8 -8 -5 -8 -11 0 -28 10 -39 23 -11 12
-17 16 -13 10 4 -8 -4 -18 -19 -24 -20 -10 -29 -9 -43 2 -9 8 -14 9 -10 3 7
-12 -414 -12 -633 0 -63 3 -187 8 -275 11 -88 3 -315 12 -505 20 -190 8 -382
15 -427 15 l-82 0 0 -247 c1 -174 4 -252 12 -262 9 -11 9 -15 0 -18 -18 -6
-18 -720 0 -742 9 -12 9 -13 0 -7 -10 6 -13 -772 -13 -3873 l0 -3881 9600 0
9600 0 0 5400 0 5400 -9600 0 -9600 0 2 -667z m1248 359 c0 -5 -7 -9 -15 -9
-8 0 -15 4 -15 9 0 4 7 8 15 8 8 0 15 -4 15 -8z m280 -6 c19 -2 76 -8 125 -12
50 -4 99 -9 110 -10 11 -2 47 -5 80 -8 33 -2 74 -7 90 -10 17 -3 68 -8 115
-11 95 -6 183 -14 220 -20 14 -3 84 -9 155 -15 72 -6 146 -13 165 -15 19 -3
55 -7 79 -10 62 -6 70 -20 11 -20 -28 0 -50 5 -50 10 0 6 -4 4 -8 -3 -6 -9
-16 -10 -33 -4 -17 7 -28 6 -37 -4 -7 -8 -25 -13 -40 -13 l-27 1 25 7 c14 3
26 13 28 21 2 8 0 12 -4 8 -4 -4 -13 -3 -20 3 -8 7 -14 6 -20 -2 -4 -7 -3 -9
4 -5 6 3 13 2 16 -3 3 -5 -6 -12 -20 -15 -20 -5 -25 -12 -21 -27 3 -12 -1 -23
-13 -29 -14 -7 -18 -6 -16 5 1 8 5 18 9 21 11 11 8 26 -3 19 -7 -4 -9 3 -5 22
3 16 2 21 -2 13 -5 -9 -17 -15 -28 -15 -21 0 -29 -34 -11 -46 4 -4 3 -10 -3
-13 -6 -4 -11 -2 -11 4 0 6 -5 8 -12 4 -9 -5 -9 -2 1 9 12 15 11 17 -8 17 -12
0 -19 -4 -16 -10 3 -5 2 -10 -4 -10 -5 0 -12 6 -15 13 -3 6 -3 1 0 -12 4 -16
3 -21 -5 -17 -10 6 -15 -6 -12 -26 0 -5 -4 -8 -10 -8 -6 0 -9 7 -5 15 3 8 4
15 2 15 -3 0 -13 3 -23 7 -16 6 -17 5 -3 -13 9 -12 9 -15 1 -7 -7 6 -21 9 -30
6 -9 -4 -5 3 9 15 14 11 27 16 28 11 6 -14 29 -10 29 5 0 8 -6 12 -14 9 -7 -3
-13 2 -13 10 0 9 -5 19 -11 23 -8 4 -9 -1 -4 -17 7 -22 7 -23 -11 -9 -10 8
-22 19 -25 24 -4 4 -10 3 -14 -4 -4 -7 1 -13 14 -17 23 -6 27 -18 9 -29 -7 -4
-8 -3 -4 4 5 8 2 10 -8 6 -9 -3 -16 -11 -16 -18 0 -6 -9 -12 -20 -12 -13 0
-19 5 -16 13 3 7 1 13 -4 13 -6 0 -10 -5 -10 -11 0 -5 -4 -7 -10 -4 -5 3 -10
-2 -10 -12 0 -14 -2 -15 -9 -4 -5 8 -14 10 -21 6 -9 -5 -11 -4 -6 3 4 7 1 12
-9 12 -10 0 -14 -5 -9 -12 3 -7 -7 2 -24 21 -27 31 -30 32 -36 14 -5 -16 -15
-19 -50 -18 -40 1 -44 -1 -35 -17 7 -13 6 -16 -4 -12 -16 6 -18 36 -3 46 6 5
2 8 -11 8 -14 0 -25 -9 -31 -27 -6 -17 -11 -21 -11 -11 -1 12 -8 15 -26 12
-14 -2 -25 -1 -24 3 4 26 -3 35 -12 15 -10 -25 -29 -21 -28 6 0 14 2 13 9 -3
7 -17 9 -18 9 -2 1 10 -10 22 -25 27 -34 13 -33 14 -28 -15 2 -14 0 -25 -6
-25 -6 0 -9 4 -6 9 9 15 -18 31 -34 21 -8 -6 -19 -10 -25 -10 -5 0 -4 4 3 8 9
6 6 16 -15 38 -15 16 -26 32 -25 37 4 14 -11 7 -29 -14 -10 -12 -23 -18 -30
-14 -6 4 -15 2 -19 -5 -5 -7 -7 -2 -7 14 0 30 -13 48 -20 29 -8 -21 -23 -15
-24 10 0 12 -3 16 -6 8 -5 -11 -7 -11 -15 0 -8 11 -11 12 -15 1 -4 -10 -8 -9
-19 5 -12 17 -13 16 -14 -7 l-1 -25 -10 24 c-7 18 -15 22 -34 19 -14 -3 -25
-2 -25 2 0 16 -45 19 -56 4 -7 -8 -14 -10 -15 -5 -2 6 -14 12 -26 14 -101 15
114 18 237 3z m-170 -16 c0 -5 -2 -10 -4 -10 -3 0 -8 5 -11 10 -3 6 -1 10 4
10 6 0 11 -4 11 -10z m320 -100 c0 -5 -7 -7 -15 -4 -8 4 -15 8 -15 10 0 2 7 4
15 4 8 0 15 -4 15 -10z m1081 -14 c5 3 9 0 9 -5 0 -6 -7 -11 -15 -11 -8 0 -15
8 -14 18 0 10 3 12 6 4 2 -6 9 -10 14 -6z m-1097 -4 c3 -5 -1 -9 -9 -9 -8 0
-15 4 -15 9 0 4 4 8 9 8 6 0 12 -4 15 -8z m1150 -4 c-3 -4 -11 -5 -19 -1 -21
7 -19 12 4 10 11 0 18 -5 15 -9z m-304 -22 c0 -3 -4 -8 -10 -11 -5 -3 -10 -1
-10 4 0 6 5 11 10 11 6 0 10 -2 10 -4z m25 -17 c-10 -15 -25 -10 -19 6 4 8 10
12 15 9 5 -3 7 -10 4 -15z m-725 -14 c0 -2 -9 -3 -19 -2 -11 0 -18 5 -15 9 4
6 34 0 34 -7z m555 5 c3 -5 1 -10 -4 -10 -6 0 -11 5 -11 10 0 6 2 10 4 10 3 0
8 -4 11 -10z m131 -12 c4 -7 3 -8 -4 -4 -7 4 -12 2 -12 -5 0 -7 -3 -10 -6 -6
-6 5 3 27 11 27 2 0 7 -5 11 -12z m-1236 -109 c0 -17 -3 -18 -20 -9 -20 11
-25 22 -14 33 11 11 34 -5 34 -24z m639 2 c16 -16 19 -31 16 -78 -2 -32 -4
-68 -4 -80 -1 -28 -38 -41 -59 -20 -12 13 -13 19 -3 31 17 21 11 84 -11 123
-14 24 -15 32 -6 36 26 11 48 7 67 -12z m395 -37 c17 -6 23 -44 7 -44 -4 0 -8
-10 -8 -22 -1 -40 -3 -48 -14 -48 -5 0 -7 5 -4 10 3 6 1 10 -6 10 -6 0 -9 8
-6 20 3 10 -1 24 -9 31 -33 27 -2 59 40 43z m274 -44 c10 -22 21 -38 25 -35 4
3 3 0 -2 -7 -7 -7 -7 -18 0 -30 8 -16 6 -18 -20 -18 -32 0 -38 10 -36 55 5 91
6 92 33 35z m-1298 -1 c0 -5 -9 -9 -20 -9 -22 0 -27 16 -7 23 15 5 27 -1 27
-14z m1134 -5 c18 -18 18 -70 0 -85 -18 -15 -64 7 -64 30 0 11 5 23 11 26 6 4
8 13 5 20 -10 28 23 34 48 9z m81 6 c-3 -5 -1 -10 6 -10 8 0 9 -4 0 -13 -8
-10 -6 -19 9 -35 18 -19 18 -22 4 -37 -19 -19 -44 -4 -44 26 0 10 -4 20 -9 23
-15 10 -6 39 15 47 26 10 26 10 19 -1z m193 -37 c-2 -16 3 -33 11 -39 8 -6 11
-16 7 -22 -10 -17 -36 -15 -30 2 3 7 -2 20 -10 29 -26 26 -18 53 17 56 5 1 7
-11 5 -26z m310 -20 c3 -43 26 -73 42 -57 6 6 5 24 -2 47 -16 52 -1 67 44 45
24 -11 37 -12 50 -5 26 17 65 -6 73 -42 9 -41 0 -66 -29 -79 -28 -12 -46 0
-46 33 0 18 -2 17 -13 -5 -12 -24 -17 -25 -92 -25 l-80 0 0 35 c-1 19 -5 43
-9 53 -11 23 11 49 38 45 17 -2 22 -11 24 -45z m462 7 c10 -6 15 -27 15 -65 1
-51 -1 -56 -23 -62 -15 -3 -29 0 -39 10 -15 14 -15 18 1 41 15 24 15 28 1 50
-13 19 -13 25 -3 29 20 8 32 8 48 -3z m95 -14 c15 -15 23 -85 12 -103 -9 -15
-42 -22 -58 -13 -10 7 -10 12 1 25 11 13 11 23 1 51 -7 18 -9 38 -6 44 9 14
34 12 50 -4z m102 -9 c10 -7 9 -17 -3 -45 -8 -21 -21 -44 -29 -52 -13 -12 -15
-9 -15 26 0 22 -5 45 -12 52 -8 8 -8 15 1 26 12 15 34 12 58 -7z m-2596 -29
c1 -7 2 -29 3 -48 1 -19 4 -41 6 -49 3 -9 -3 -17 -14 -19 -16 -3 -18 0 -12 33
5 26 3 44 -8 60 -8 12 -12 25 -9 29 11 11 33 6 34 -6z m125 -29 c1 -13 4 -34
8 -46 9 -28 -24 -49 -52 -34 -22 12 -30 100 -11 112 21 13 54 -7 55 -32z
m-229 9 c22 -25 23 -56 1 -69 -16 -11 -20 -11 -36 -1 -18 12 -25 61 -11 78 16
19 22 18 46 -8z m341 -32 l3 -37 -25 16 c-18 12 -26 14 -26 5 0 -10 -3 -10
-15 0 -8 7 -15 23 -15 36 0 21 4 23 38 20 35 -3 37 -6 40 -40z m210 -13 c2
-19 -4 -37 -15 -49 -17 -17 -18 -17 -24 12 -4 16 -7 25 -8 20 0 -5 -8 -3 -16
4 -16 14 -11 49 9 62 18 12 51 -18 54 -49z m-114 32 c-4 -8 -8 -15 -10 -15 -2
0 -4 7 -4 15 0 8 4 15 10 15 5 0 7 -7 4 -15z m510 2 c14 -10 16 -26 14 -92 -3
-72 -5 -80 -23 -80 -14 0 -19 6 -17 20 10 53 8 83 -4 114 -20 47 -6 64 30 38z
m2378 -23 c16 -58 -10 -91 -51 -65 -20 13 -16 73 5 88 25 18 36 12 46 -23z
m-2682 16 c0 -5 -8 -10 -17 -10 -15 0 -16 2 -3 10 19 12 20 12 20 0z m-220
-30 c0 -5 -2 -10 -4 -10 -3 0 -8 5 -11 10 -3 6 -1 10 4 10 6 0 11 -4 11 -10z
m408 -10 c15 0 15 -2 2 -10 -22 -14 -26 -12 -27 13 0 12 1 16 4 10 3 -7 12
-13 21 -13z m827 -50 c-3 -5 -13 -10 -21 -10 -8 0 -12 5 -9 10 3 6 13 10 21
10 8 0 12 -4 9 -10z m-97 -22 c-6 -18 -25 -21 -25 -3 0 8 7 15 15 15 7 0 12
-5 10 -12z m1123 -40 c1 -13 1 -26 0 -30 0 -5 4 -8 9 -8 6 0 10 -9 10 -20 0
-11 -2 -20 -4 -20 -2 0 -12 -3 -22 -7 -14 -5 -16 -2 -11 18 3 14 0 32 -8 42
-7 11 -11 25 -8 33 8 22 33 16 34 -8z m191 -10 c18 -33 19 -50 2 -44 -17 6
-19 -10 -3 -20 8 -5 6 -10 -6 -16 -22 -13 -33 -1 -36 42 -5 58 20 79 43 38z
m78 -22 c0 -19 5 -36 11 -38 5 -2 7 -11 3 -21 -10 -26 -27 -15 -29 19 -1 16
-3 34 -4 39 -6 18 -1 35 9 35 6 0 10 -15 10 -34z m-3050 10 c0 -3 -4 -8 -10
-11 -5 -3 -10 -1 -10 4 0 6 5 11 10 11 6 0 10 -2 10 -4z m3254 -38 c8 -47 0
-60 -31 -52 -28 8 -37 33 -24 68 17 43 47 34 55 -16z m164 25 c-1 -5 2 -23 6
-42 6 -25 4 -37 -9 -50 -15 -15 -18 -14 -36 8 -21 26 -24 44 -9 72 10 18 52
28 48 12z m93 -14 c15 -29 3 -89 -19 -89 -14 0 -17 11 -19 55 -2 59 15 75 38
34z m-2457 -16 c2 -10 5 -48 5 -84 1 -50 -3 -68 -14 -73 -16 -6 -22 19 -7 28
14 8 6 84 -12 111 -21 31 -20 35 3 35 11 0 22 -8 25 -17z m-1049 -14 c4 -6 5
-12 2 -15 -7 -7 -37 7 -37 17 0 13 27 11 35 -2z m2238 -74 c12 -12 20 -12 47
-2 28 11 33 10 46 -7 32 -45 4 -117 -37 -96 -10 6 -19 15 -19 19 0 13 -33 6
-38 -7 -9 -29 -49 -7 -61 34 -17 58 24 97 62 59z m283 -32 c3 -16 8 -35 10
-44 6 -21 -31 -53 -52 -45 -15 6 -15 8 -1 24 13 15 14 20 2 42 -21 37 -18 50
10 50 19 0 26 -7 31 -27z m88 -22 c-4 -14 -6 -36 -6 -48 1 -18 -4 -23 -23 -23
-29 0 -33 23 -10 46 12 12 12 20 4 36 -8 16 -8 22 2 29 22 13 41 -11 33 -40z
m-199 20 c3 -5 1 -12 -5 -16 -5 -3 -10 1 -10 9 0 18 6 21 15 7z m383 -3 c13
-13 16 -56 6 -82 -8 -22 -41 -20 -54 3 -11 22 -14 74 -3 84 10 11 38 8 51 -5z
m98 1 c3 -6 2 -21 -4 -32 -6 -12 -13 -31 -16 -41 -9 -28 -18 -13 -22 38 -3 40
-1 46 16 46 10 0 22 -5 26 -11z m8244 -83 c36 -3 80 -10 98 -15 18 -5 36 -11
40 -12 25 -6 33 -15 42 -47 23 -86 6 -418 -28 -517 -9 -27 -17 -54 -17 -60 0
-5 -8 -19 -18 -30 -17 -19 -19 -19 -31 -2 -7 9 -18 17 -24 17 -6 0 -14 5 -18
12 -5 7 -3 8 6 3 9 -6 11 -4 6 4 -5 7 -14 10 -22 7 -8 -3 -14 1 -14 10 0 8 -4
13 -9 9 -5 -3 -12 4 -16 15 -3 11 -13 20 -20 20 -14 0 -66 20 -118 46 -16 8
-25 9 -21 3 4 -8 0 -7 -15 0 -25 14 -26 24 -6 41 23 19 18 27 -19 41 -19 7
-33 16 -31 20 8 12 -23 31 -37 23 -7 -4 -10 -4 -6 0 12 14 -26 46 -54 46 -16
0 -28 5 -28 11 0 5 -4 7 -10 4 -5 -3 -10 0 -10 9 0 8 -7 13 -17 11 -10 -1 -22
1 -28 5 -16 11 -61 20 -68 13 -12 -11 -58 -12 -51 -1 4 5 -5 3 -18 -6 -14 -9
-28 -13 -33 -9 -4 5 -5 3 -2 -3 4 -7 0 -14 -8 -18 -8 -3 -15 0 -15 6 0 6 -10
-1 -23 -15 -12 -15 -31 -27 -40 -27 -10 0 -22 -10 -27 -22 -5 -13 -9 -17 -9
-9 -1 17 -14 6 -17 -14 -2 -15 52 -39 67 -29 5 3 6 -2 3 -10 -3 -9 -10 -13
-15 -10 -5 3 -9 1 -9 -4 0 -12 -44 -30 -91 -36 -50 -7 -69 -16 -69 -32 0 -8
-4 -14 -10 -14 -5 0 -10 -10 -10 -22 0 -19 -2 -20 -10 -8 -6 10 -10 11 -10 3
0 -7 -7 -13 -15 -13 -14 0 -19 -12 -16 -32 0 -5 -2 -7 -7 -7 -24 4 -53 -3 -66
-17 -19 -19 -56 -10 -56 14 0 15 2 15 10 2 5 -8 10 -10 10 -5 0 6 4 4 9 -3 7
-11 9 -11 14 2 4 9 3 15 -1 13 -4 -1 -8 1 -10 5 -1 5 -10 27 -19 49 -15 39
-15 42 0 51 22 12 22 30 0 26 -10 -2 -29 6 -42 19 -14 12 -29 19 -34 16 -4 -3
-3 4 4 15 12 20 44 36 63 33 4 -1 15 4 24 11 13 11 15 11 8 -2 -4 -8 2 -4 13
10 20 24 25 36 22 53 -1 5 3 6 9 2 5 -3 16 7 22 22 7 15 18 34 25 41 7 7 13
17 13 21 0 4 11 14 25 21 13 7 22 17 19 22 -3 4 -1 8 4 8 5 0 25 15 44 34 20
19 38 33 41 30 3 -3 8 4 12 15 3 12 10 21 15 21 5 0 21 12 35 27 14 15 25 22
25 16 0 -7 12 -1 26 12 15 14 38 26 50 26 31 2 37 3 49 11 6 3 22 5 38 3 15
-2 25 1 21 6 -3 5 -10 6 -16 3 -7 -4 -8 -2 -4 4 5 8 13 9 25 2 10 -5 20 -8 22
-5 6 5 101 14 234 21 61 4 111 8 113 9 2 2 18 -1 35 -5 18 -5 61 -11 97 -14z
m-9152 -325 c1 -16 -3 -33 -9 -37 -8 -4 -9 -3 -5 4 5 8 0 12 -13 12 -16 0 -21
6 -21 25 0 19 5 25 23 25 18 0 23 -6 25 -29z m-659 -188 c1 -15 -25 -17 -34
-3 -3 5 0 18 7 30 12 18 13 19 20 2 3 -9 7 -23 7 -29z m691 -29 c0 -17 -18
-27 -36 -20 -9 4 -12 11 -7 18 8 13 9 18 12 41 2 15 31 -21 31 -39z m-565 -35
c-4 -6 -13 -5 -24 1 -10 5 -21 6 -25 3 -3 -3 -6 -1 -6 5 0 5 6 12 13 15 17 6
49 -12 42 -24z m94 13 c8 -16 6 -17 -24 -14 -24 3 -32 8 -28 18 7 20 40 17 52
-4z m-2279 -32 c0 -6 -9 -5 -20 2 -11 7 -20 16 -20 21 0 4 9 3 20 -3 11 -6 20
-15 20 -20z m2840 5 c11 -13 10 -14 -4 -9 -9 3 -16 10 -16 15 0 13 6 11 20 -6z
m473 -2 c3 -5 -1 -14 -9 -20 -8 -8 -15 -9 -19 -3 -3 6 -1 10 5 10 6 0 8 5 5
10 -3 6 -2 10 4 10 5 0 12 -3 14 -7z m-3329 -27 c27 7 34 -7 17 -35 -7 -11
-13 -10 -34 5 -15 11 -29 25 -32 33 -4 11 -2 11 9 2 8 -7 25 -9 40 -5z m1101
-6 c3 -5 2 -10 -4 -10 -5 0 -13 5 -16 10 -3 6 -2 10 4 10 5 0 13 -4 16 -10z
m2855 -8 c0 -5 -7 -9 -15 -9 -8 0 -15 4 -15 9 0 4 7 8 15 8 8 0 15 -4 15 -8z
m266 -20 c-10 -2 -22 0 -28 6 -6 6 0 7 19 4 21 -5 23 -7 9 -10z m408 7 c-3 -6
0 -16 7 -21 12 -8 11 -9 -1 -5 -18 4 -27 37 -10 37 6 0 8 -5 4 -11z m-3731
-30 c-13 -13 -43 -5 -43 10 0 13 33 20 45 9 5 -5 5 -12 -2 -19z m3567 21 c0
-5 -5 -10 -11 -10 -5 0 -7 5 -4 10 3 6 8 10 11 10 2 0 4 -4 4 -10z m-3460 -20
c0 -11 -4 -20 -9 -20 -13 0 -32 26 -24 33 13 14 33 6 33 -13z m9925 10 c-3 -5
-10 -10 -16 -10 -5 0 -9 5 -9 10 0 6 7 10 16 10 8 0 12 -4 9 -10z m-9321 -19
c4 -5 -3 -7 -14 -4 -23 6 -26 13 -6 13 8 0 17 -4 20 -9z m9287 -10 c-7 -5 -11
-13 -8 -18 3 -5 0 -10 -7 -10 -8 0 -11 8 -8 19 2 10 12 18 21 18 13 0 13 -2 2
-9z m-9814 -27 c-3 -4 -14 -3 -24 0 -15 6 -15 8 -3 16 16 10 39 -4 27 -16z
m-1057 -100 c15 -37 12 -46 -9 -32 -10 6 -17 18 -14 25 3 7 -2 13 -11 13 -9 0
-16 -4 -16 -10 0 -5 -4 -10 -9 -10 -5 0 -7 9 -4 20 8 30 51 27 63 -6z m438 4
c7 -7 12 -23 12 -37 l-1 -26 -20 24 c-17 21 -22 22 -30 10 -15 -24 -10 -45 14
-57 l22 -12 -25 3 c-21 2 -25 8 -28 41 -2 21 -1 44 2 52 7 17 38 18 54 2z
m10377 -46 c-3 -3 -11 0 -18 7 -9 10 -8 11 6 5 10 -3 15 -9 12 -12z m-10849
-27 c25 -13 26 -15 8 -15 -12 0 -27 7 -34 15 -16 19 -10 19 26 0z m1514 -45
c0 -5 -4 -10 -10 -10 -5 0 -10 5 -10 10 0 6 5 10 10 10 6 0 10 -4 10 -10z
m9313 -5 c-3 -9 -8 -14 -10 -11 -3 3 -2 9 2 15 9 16 15 13 8 -4z m-7355 -30
c-3 -3 -9 2 -12 12 -6 14 -5 15 5 6 7 -7 10 -15 7 -18z m2358 -30 c7 -28 0
-55 -15 -55 -13 0 -25 45 -17 65 8 23 25 18 32 -10z m5009 -20 c17 -5 33 -9
37 -9 4 -1 13 -7 20 -13 17 -18 -2 -34 -45 -36 -19 -1 -33 -5 -31 -8 9 -15
-53 -16 -79 -2 -18 9 -26 10 -22 3 8 -13 -36 9 -46 23 -3 5 -10 8 -14 8 -5 -1
-10 5 -11 12 -1 8 3 14 10 15 6 0 22 3 36 7 14 3 42 6 63 6 22 0 37 5 37 12 0
8 2 9 8 1 4 -6 21 -15 37 -19z m-10795 -21 c15 -38 13 -46 -10 -34 -11 6 -20
17 -20 25 0 8 -4 15 -10 15 -5 0 -10 -5 -10 -11 0 -5 -4 -8 -10 -4 -17 10 1
35 26 35 17 0 27 -8 34 -26z m432 9 c10 -9 18 -28 18 -42 l-1 -26 -20 25 c-20
23 -22 23 -34 7 -19 -26 -28 5 -9 32 18 25 22 26 46 4z m442 -44 c8 -51 2 -60
-29 -46 -30 14 -32 27 -5 34 16 4 18 9 9 19 -6 7 -8 18 -4 24 12 20 23 9 29
-31z m216 -7 c-1 -25 -1 -26 -12 -7 -16 29 -16 29 -33 15 -12 -10 -15 -10 -15
2 0 8 5 19 12 26 18 18 48 -4 48 -36z m7386 7 c3 -5 18 -9 34 -9 17 0 30 -7
34 -17 5 -12 9 -14 18 -5 7 7 31 12 55 12 47 0 63 -17 56 -60 -6 -37 -18 -44
-47 -25 -36 24 -58 27 -223 29 -151 2 -167 7 -161 47 3 23 6 24 71 22 37 -1
67 2 67 7 0 11 88 11 96 -1z m-7502 -14 c6 -16 -3 -19 -28 -9 -22 8 -20 24 3
24 10 0 21 -7 25 -15z m-999 -33 c-7 -8 -35 7 -35 18 0 6 7 6 20 -2 10 -7 17
-14 15 -16z m454 -8 c2 -2 -5 -4 -16 -4 -12 0 -23 7 -27 15 -5 13 -2 14 17 4
12 -6 24 -13 26 -15z m1041 -20 c0 -8 -4 -12 -10 -9 -5 3 -10 10 -10 16 0 5 5
9 10 9 6 0 10 -7 10 -16z m1780 -4 c0 -5 -4 -10 -10 -10 -5 0 -10 5 -10 10 0
6 5 10 10 10 6 0 10 -4 10 -10z m7475 0 c3 -5 1 -10 -4 -10 -6 0 -11 5 -11 10
0 6 2 10 4 10 3 0 8 -4 11 -10z m-3437 -58 c3 -9 -2 -13 -14 -10 -9 1 -19 9
-22 16 -3 9 2 13 14 10 9 -1 19 -9 22 -16z m52 -18 c0 -8 -4 -14 -9 -14 -11 0
-22 26 -14 34 9 9 23 -3 23 -20z m138 -8 c2 -15 1 -35 -2 -43 -9 -24 -36 3
-36 37 0 49 33 54 38 6z m-7471 -36 l2 -35 -12 28 c-6 15 -19 27 -29 27 -10 0
-18 5 -18 11 0 6 12 9 28 7 23 -3 27 -8 29 -38z m435 23 c10 -9 18 -28 18 -42
l-1 -26 -24 27 c-22 26 -25 26 -34 10 -10 -15 -10 -15 -11 4 0 18 17 44 29 44
2 0 13 -7 23 -17z m7780 -47 c-8 -15 -20 16 -14 38 6 20 6 20 12 -4 4 -14 5
-29 2 -34z m58 30 c0 -14 -5 -28 -11 -32 -17 -10 -32 12 -24 35 9 29 35 27 35
-3z m388 10 c5 -3 9 -14 8 -23 -3 -20 -58 -36 -93 -28 -22 5 -23 23 -1 52 9
11 66 11 86 -1z m175 -6 c5 -4 7 -18 5 -31 -2 -19 -9 -23 -38 -24 -29 0 -36 4
-38 23 -6 40 4 53 35 46 16 -4 32 -10 36 -14z m-1652 -13 c-13 -13 -26 -3 -16
12 3 6 11 8 17 5 6 -4 6 -10 -1 -17z m154 13 c3 -5 -1 -10 -9 -10 -9 0 -16 5
-16 10 0 6 4 10 9 10 6 0 13 -4 16 -10z m75 2 c0 -13 -12 -22 -22 -16 -10 6
-1 24 13 24 5 0 9 -4 9 -8z m1632 -16 c6 -12 6 -22 -2 -32 -17 -19 -47 -18
-59 4 -10 16 -10 16 -11 0 0 -10 -4 -18 -9 -18 -6 0 -8 59 -2 66 1 1 17 1 37
0 22 -2 40 -9 46 -20z m-636 -18 c4 -6 3 -8 -4 -4 -5 3 -13 0 -15 -6 -3 -8 -6
-6 -6 5 -1 19 14 23 25 5z m54 2 c0 -5 -2 -10 -4 -10 -3 0 -8 5 -11 10 -3 6
-1 10 4 10 6 0 11 -4 11 -10z m2172 -4 c16 10 78 7 92 -5 7 -6 23 -9 36 -6 14
3 29 -2 37 -13 9 -11 12 -12 7 -2 -5 10 -4 12 4 5 21 -20 18 -50 -8 -72 -14
-13 -32 -24 -40 -24 -8 -1 -24 -2 -35 -3 -11 0 -31 -9 -44 -18 -24 -17 -26
-17 -57 7 -18 14 -41 25 -52 25 -40 0 -63 53 -34 82 16 16 76 35 80 26 2 -5 8
-5 14 -2z m-336 -6 c7 0 16 -10 20 -22 l7 -23 8 23 c7 18 14 22 29 17 11 -4
20 -2 20 4 0 16 20 13 26 -4 4 -8 3 -22 0 -31 -5 -13 -9 -14 -21 -4 -12 10
-16 7 -25 -15 -8 -20 -14 -25 -23 -17 -7 6 -18 7 -26 2 -18 -11 -41 -2 -41 16
0 8 -6 11 -16 7 -18 -7 -34 12 -34 41 0 15 5 17 31 12 17 -3 37 -6 45 -6z
m-96 -15 c0 -8 -4 -15 -10 -15 -5 0 -10 7 -10 15 0 8 5 15 10 15 6 0 10 -7 10
-15z m-9781 -33 c-17 -7 -39 7 -39 23 0 14 3 14 24 -2 13 -10 20 -20 15 -21z
m10510 29 c11 -7 19 -76 9 -86 -10 -10 -53 23 -56 43 -7 45 14 64 47 43z
m-7679 -15 c0 -2 -7 -9 -15 -16 -13 -11 -14 -10 -9 4 5 14 24 23 24 12z m6940
-16 c0 -5 -2 -10 -4 -10 -3 0 -8 5 -11 10 -3 6 -1 10 4 10 6 0 11 -4 11 -10z
m-9741 -122 c12 -31 3 -43 -18 -24 -13 12 -20 13 -29 4 -9 -9 -12 -7 -12 8 0
12 3 24 7 27 14 15 44 6 52 -15z m10251 -142 c14 -3 27 -5 30 -6 3 -2 8 -2 12
-2 3 1 9 -5 12 -13 3 -9 -6 -18 -29 -25 -39 -13 -177 -11 -169 2 3 5 -2 8 -11
6 -10 -2 -20 4 -22 12 -4 13 -3 13 6 0 9 -13 11 -13 11 2 0 12 13 20 43 26 40
8 59 8 117 -2z m-4307 -109 c-3 -5 -10 -4 -15 1 -6 6 -7 16 -3 22 6 9 9 9 16
-1 4 -7 5 -17 2 -22z m85 -26 c3 -26 0 -32 -14 -29 -27 5 -40 33 -24 52 19 24
35 14 38 -23z m6555 -118 c3 -18 1 -33 -4 -33 -5 0 -9 -7 -9 -15 0 -8 5 -15
10 -15 7 0 7 -6 0 -20 -10 -19 -6 -25 14 -21 5 1 4 -5 -3 -13 -8 -9 -10 -23
-6 -33 9 -21 17 -68 17 -100 0 -13 5 -23 10 -23 6 0 5 -6 -2 -15 -9 -11 -9
-21 3 -45 9 -16 11 -30 6 -30 -6 0 -5 -8 1 -20 8 -15 8 -18 -3 -14 -10 3 -13
-5 -13 -31 1 -26 5 -35 18 -35 23 0 27 9 33 72 3 29 11 57 16 63 8 7 9 1 5
-20 -6 -29 -11 -79 -21 -213 -3 -35 -8 -75 -12 -90 -4 -15 -6 -42 -6 -59 0
-18 -3 -30 -8 -27 -4 2 -6 11 -3 18 3 8 1 17 -5 21 -6 3 -11 1 -11 -6 0 -7 -3
-9 -6 -6 -4 4 -2 13 5 21 9 11 8 15 -5 20 -11 4 -14 13 -10 31 4 16 2 25 -5
25 -8 0 -8 4 0 14 9 11 9 15 -1 19 -10 4 -10 8 2 16 10 7 11 11 3 11 -7 0 -13
5 -13 10 0 6 6 10 13 10 8 0 22 9 32 20 10 11 14 20 9 20 -5 0 -2 5 6 10 9 6
10 10 3 10 -6 0 -18 -6 -25 -13 -7 -8 -20 -14 -29 -14 -9 0 -16 6 -16 14 0 7
5 13 11 13 6 0 5 4 -3 9 -8 5 -15 20 -17 33 -1 12 -5 37 -9 53 -4 17 -8 35 -9
40 -1 6 -4 15 -8 20 -12 20 -3 228 10 233 6 2 12 8 12 13 0 6 -5 7 -12 3 -7
-5 -9 -2 -5 9 3 9 0 18 -9 21 -9 3 -13 19 -12 45 1 32 5 41 22 43 25 4 32 -6
39 -49z m-6498 -37 c-8 -40 11 -59 31 -31 7 10 11 21 9 26 -12 18 1 19 191 18
45 -1 92 4 103 11 31 16 41 5 41 -47 0 -39 -2 -44 -17 -38 -10 4 -22 7 -28 6
-5 0 -88 -2 -183 -4 -170 -4 -174 -4 -183 17 -13 27 4 76 26 76 13 0 15 -7 10
-34z m-1397 -11 c-3 -3 -9 2 -12 12 -6 14 -5 15 5 6 7 -7 10 -15 7 -18z m-228
-9 c0 -3 -4 -8 -10 -11 -5 -3 -10 -1 -10 4 0 6 5 11 10 11 6 0 10 -2 10 -4z
m-343 -21 c0 -8 -4 -12 -9 -9 -5 3 -6 10 -3 15 9 13 12 11 12 -6z m1753 0 c0
-8 -7 -15 -16 -15 -14 0 -14 3 -4 15 7 8 14 15 16 15 2 0 4 -7 4 -15z m70 -5
c0 -11 -7 -20 -15 -20 -27 0 -18 30 13 39 1 1 2 -8 2 -19z m-4270 -200 c0 -5
-2 -10 -4 -10 -3 0 -8 5 -11 10 -3 6 -1 10 4 10 6 0 11 -4 11 -10z m8545 -56
c22 -4 43 -7 48 -6 4 1 7 -2 7 -8 0 -5 -5 -10 -11 -10 -5 0 -7 -5 -4 -10 4 -6
3 -9 -2 -8 -16 4 -53 -14 -48 -23 4 -5 22 -9 41 -9 24 0 33 -4 28 -12 -4 -7
-3 -8 4 -4 7 4 20 2 29 -3 16 -9 15 -12 -2 -11 -3 1 -12 -6 -20 -14 -19 -19
-112 -30 -178 -22 -29 4 -64 8 -79 9 -15 2 -30 6 -33 9 -4 4 -14 4 -23 1 -14
-5 -13 -2 3 16 12 14 21 18 23 11 3 -9 6 -9 11 -1 4 6 25 14 47 16 21 3 45 6
52 7 14 2 16 17 2 19 -5 1 -13 3 -17 4 -5 2 -18 6 -31 10 -22 7 -25 32 -3 28
6 -2 11 1 11 6 0 5 8 7 19 4 10 -3 22 0 26 7 4 6 19 9 33 6 15 -2 45 -8 67
-12z m-3485 -229 c-5 -6 -7 -15 -3 -18 3 -4 1 -7 -5 -7 -6 0 -10 13 -10 30 1
24 4 28 15 19 9 -8 10 -15 3 -24z m-803 -27 c-3 -7 -5 -2 -5 12 0 14 2 19 5
13 2 -7 2 -19 0 -25z m299 15 c-2 -9 -8 -19 -14 -21 -16 -5 -15 25 1 31 6 3
13 6 14 6 1 1 0 -7 -1 -16z m148 8 c3 -5 -1 -14 -8 -20 -12 -10 -14 -9 -11 6
2 10 4 19 4 21 2 5 10 2 15 -7z m-515 -24 c0 -9 -2 -8 -6 1 -2 6 -10 9 -15 6
-7 -4 -8 -2 -4 5 9 13 26 5 25 -12z m4376 -7 c4 -6 11 -8 16 -5 5 4 9 1 9 -6
0 -7 10 -9 27 -6 35 7 59 -18 68 -69 7 -43 2 -51 -32 -59 -10 -3 -36 -9 -58
-14 -53 -13 -165 -19 -171 -10 -2 4 -12 8 -22 8 -69 3 -82 7 -82 23 0 11 6 16
20 13 11 -2 22 0 25 6 4 5 15 9 26 9 15 0 19 7 19 36 0 19 5 44 10 55 13 23
58 26 66 4 8 -19 34 -20 34 -1 0 22 34 33 45 16z m-6450 -30 c3 -5 1 -10 -4
-10 -6 0 -11 5 -11 10 0 6 2 10 4 10 3 0 8 -4 11 -10z m6910 -38 c-3 -4 -10 0
-15 8 -6 9 -5 17 3 22 13 8 24 -19 12 -30z m117 7 c-5 -33 -10 -36 -26 -13
-10 14 -11 23 -4 32 16 19 33 8 30 -19z m518 16 c0 -8 -2 -15 -4 -15 -2 0 -6
7 -10 15 -3 8 -1 15 4 15 6 0 10 -7 10 -15z m-1540 -26 c0 -10 -7 -19 -15 -19
-15 0 -21 31 -9 43 11 10 24 -3 24 -24z m-170 1 c0 -5 -9 -14 -20 -20 -15 -8
-20 -8 -20 3 0 8 3 17 7 20 10 10 33 8 33 -3z m70 -10 c0 -5 -11 -9 -25 -8
-14 1 -25 6 -25 10 0 4 11 8 25 8 14 0 25 -4 25 -10z m-8405 -20 c3 -5 1 -10
-4 -10 -6 0 -11 5 -11 10 0 6 2 10 4 10 3 0 8 -4 11 -10z m10835 -120 c0 -5
-5 -10 -11 -10 -5 0 -7 5 -4 10 3 6 8 10 11 10 2 0 4 -4 4 -10z m-75 -30 c-3
-5 -12 -10 -18 -10 -7 0 -6 4 3 10 19 12 23 12 15 0z m-1783 -83 c4 -7 8 -8 8
-3 0 5 6 3 13 -3 8 -6 17 -7 22 -3 4 4 6 0 3 -8 -3 -8 -21 -16 -44 -18 -21 -2
-40 -7 -42 -11 -4 -11 -115 -2 -126 10 -14 13 -29 11 -20 -3 4 -7 3 -8 -4 -4
-17 11 -15 19 11 36 44 28 163 33 179 7z m3351 16 c-7 -2 -21 -2 -30 0 -10 3
-4 5 12 5 17 0 24 -2 18 -5z m-120 -10 c-13 -2 -33 -2 -45 0 -13 2 -3 4 22 4
25 0 35 -2 23 -4z m-120 -10 c-7 -2 -19 -2 -25 0 -7 3 -2 5 12 5 14 0 19 -2
13 -5z m-8189 -28 c3 -9 0 -15 -9 -15 -9 0 -12 6 -9 15 4 8 7 15 9 15 2 0 5
-7 9 -15z m7944 8 c-10 -2 -28 -2 -40 0 -13 2 -5 4 17 4 22 1 32 -1 23 -4z
m-108 -9 c-35 -7 -98 -9 -94 -2 3 5 29 7 57 7 29 -1 45 -3 37 -5z m-137 -11
c-13 -2 -33 -2 -45 0 -13 2 -3 4 22 4 25 0 35 -2 23 -4z m-110 -10 c-13 -2
-35 -2 -50 0 -16 2 -5 4 22 4 28 0 40 -2 28 -4z m-115 -10 c-16 -2 -40 -2 -55
0 -16 2 -3 4 27 4 30 0 43 -2 28 -4z m-130 -10 c-10 -2 -28 -2 -40 0 -13 2 -5
4 17 4 22 1 32 -1 23 -4z m-90 -10 c-15 -2 -42 -2 -60 0 -18 2 -6 4 27 4 33 0
48 -2 33 -4z m190 -13 c-11 -17 -8 -24 17 -51 17 -18 26 -30 20 -27 -11 6 -10
-83 1 -205 4 -42 2 -73 -4 -79 -7 -7 -5 -18 4 -36 16 -31 18 -90 4 -112 -7
-11 -10 -11 -10 -2 0 7 -4 10 -10 7 -6 -4 -10 10 -10 34 0 21 -5 41 -11 43 -9
3 -9 10 0 26 9 17 9 28 -3 51 -12 22 -16 72 -19 200 -2 159 -1 171 15 171 16
0 16 -3 6 -20z m-2439 -4 c14 -17 51 -28 51 -14 0 5 5 6 10 3 6 -3 10 0 10 7
0 9 5 8 16 -3 23 -23 30 -92 11 -107 -18 -15 -70 -5 -61 12 3 6 -3 1 -13 -11
-44 -53 -103 -22 -103 55 0 55 51 92 79 58z m2099 7 c-10 -2 -28 -2 -40 0 -13
2 -5 4 17 4 22 1 32 -1 23 -4z m-135 -10 c-13 -2 -33 -2 -45 0 -13 2 -3 4 22
4 25 0 35 -2 23 -4z m51 -55 c-47 -222 35 -678 171 -953 92 -186 203 -266 319
-231 25 8 47 12 50 9 2 -3 15 1 27 8 20 10 21 13 7 18 -15 5 -10 16 29 74 28
40 50 63 54 56 4 -7 10 -3 14 11 6 20 9 21 17 7 5 -11 5 -24 -2 -37 -13 -23
-22 -27 -14 -5 5 11 2 13 -10 9 -8 -3 -14 -11 -13 -17 1 -7 -3 -11 -10 -10 -7
2 -18 -7 -24 -20 -11 -20 -11 -21 5 -8 15 12 16 12 10 -5 -4 -15 -1 -13 16 6
16 18 19 20 12 5 -18 -37 -84 -94 -128 -111 -64 -24 -150 -16 -204 20 -26 17
-45 24 -49 18 -4 -7 -13 -5 -26 5 -20 15 -20 15 3 8 30 -9 28 0 -13 48 -42 49
-124 213 -158 317 -87 259 -139 705 -95 803 9 20 19 37 21 37 2 0 -2 -28 -9
-62z m-1708 17 c6 -24 -9 -55 -27 -55 -14 0 -30 40 -24 60 9 29 43 25 51 -5z
m102 -4 c5 -32 -13 -48 -33 -31 -18 15 -20 46 -2 53 20 9 32 2 35 -22z m97 19
c4 -6 1 -18 -6 -26 -11 -14 -13 -14 -21 0 -15 26 12 51 27 26z m575 0 c0 -5
-2 -10 -4 -10 -3 0 -8 5 -11 10 -3 6 -1 10 4 10 6 0 11 -4 11 -10z m-1280 -55
c0 -28 -17 -44 -41 -38 -35 10 -36 77 -1 86 21 5 42 -19 42 -48z m806 44 c3
-6 2 -15 -4 -21 -7 -7 -14 -3 -21 11 -10 17 -9 21 3 21 8 0 18 -5 22 -11z
m-926 -37 c0 -37 -10 -46 -26 -24 -8 11 -9 22 -3 34 14 27 29 22 29 -10z m209
-33 c-15 -9 -39 7 -39 27 0 7 8 17 18 23 14 8 19 5 26 -16 6 -18 5 -28 -5 -34z
m2191 -79 c0 -36 9 -125 18 -198 10 -73 15 -138 11 -144 -11 -17 -16 1 -28
102 -14 117 -23 398 -11 345 5 -22 9 -69 10 -105z m-3070 73 c0 -25 -10 -29
-28 -11 -16 16 -15 45 1 51 15 5 27 -11 27 -40z m216 0 c-11 -11 -19 6 -11 24
8 17 8 17 12 0 3 -10 2 -21 -1 -24z m2548 12 c3 -8 1 -15 -4 -15 -6 0 -10 5
-10 10 0 6 -13 1 -29 -11 -33 -25 -47 -64 -30 -85 19 -23 29 -16 23 16 -7 34
9 60 37 60 27 0 52 -108 25 -111 -59 -6 -106 20 -106 59 1 30 14 50 50 75 30
21 36 21 44 2z m493 -17 c-3 -8 -6 -5 -6 6 -1 11 2 17 5 13 3 -3 4 -12 1 -19z
m-4583 -17 c14 -15 15 -24 6 -40 -6 -12 -15 -21 -20 -21 -6 0 -13 0 -17 -1
-13 -1 -20 45 -11 64 11 22 21 22 42 -2z m494 -8 c-3 -30 -25 -42 -34 -19 -9
22 2 46 21 46 12 0 15 -8 13 -27z m-120 -6 c2 -12 -3 -17 -17 -17 -12 0 -21 6
-21 13 0 31 32 34 38 4z m-900 -30 c3 -38 -5 -46 -26 -25 -13 13 -16 51 -5 62
14 14 28 -2 31 -37z m249 21 c-3 -8 -6 -5 -6 6 -1 11 2 17 5 13 3 -3 4 -12 1
-19z m2679 -3 c4 -8 9 -13 13 -11 4 3 6 -8 5 -22 -1 -15 -3 -32 -3 -39 -1 -6
-8 -19 -17 -28 -15 -14 -18 -13 -41 11 -39 42 -25 101 25 103 7 1 15 -6 18
-14z m-3456 -34 c0 -46 -22 -70 -45 -51 -29 24 -8 90 27 90 14 0 18 -8 18 -39z
m660 30 c0 -5 -7 -14 -15 -21 -13 -10 -15 -9 -15 9 0 12 6 21 15 21 8 0 15 -4
15 -9z m120 -27 c0 -8 -5 -12 -10 -9 -6 4 -8 11 -5 16 9 14 15 11 15 -7z
m2270 -35 c0 -30 -17 -38 -38 -17 -16 16 -15 55 1 61 20 7 37 -13 37 -44z
m624 35 c3 -8 1 -25 -5 -36 l-11 -20 -20 20 c-12 12 -18 27 -15 36 8 21 43 21
51 0z m-7484 -4 c0 -5 -2 -10 -4 -10 -3 0 -8 5 -11 10 -3 6 -1 10 4 10 6 0 11
-4 11 -10z m7064 -17 c-9 -36 -12 -39 -20 -19 -7 20 1 46 16 46 6 0 8 -11 4
-27z m-4123 1 c11 -14 10 -18 -5 -30 -22 -16 -36 -10 -36 15 0 33 20 40 41 15z
m-459 -26 c3 -18 8 -41 13 -50 5 -13 3 -18 -9 -18 -18 0 -21 7 -31 63 -4 28
-3 37 8 37 9 0 17 -13 19 -32z m6955 8 c-3 -8 -1 -16 4 -18 6 -2 9 -17 7 -32
-3 -28 -4 -28 -18 -11 -13 17 -13 18 0 10 13 -8 13 -6 2 8 -12 15 -9 57 5 57
3 0 3 -6 0 -14z m-3020 -11 c5 -16 -14 -38 -26 -31 -18 12 -13 48 6 44 9 -2
18 -7 20 -13z m-4248 -34 c0 -16 -3 -20 -6 -11 -3 8 -10 20 -14 26 -5 7 -3 11
6 11 10 0 15 -10 14 -26z m-564 -11 c3 -5 1 -10 -4 -10 -6 0 -11 5 -11 10 0 6
2 10 4 10 3 0 8 -4 11 -10z m2735 -25 c10 -12 10 -21 2 -40 -22 -48 -61 -23
-48 30 7 28 27 32 46 10z m2947 -7 c19 -16 16 -52 -8 -82 -33 -42 -61 -30 -78
32 -17 58 39 90 86 50z m680 -15 c-11 -10 -26 8 -20 23 5 15 7 14 15 -1 6 -9
7 -19 5 -22z m283 22 c0 -8 -2 -15 -4 -15 -2 0 -6 7 -10 15 -3 8 -1 15 4 15 6
0 10 -7 10 -15z m-3650 -13 c0 -4 -5 -14 -10 -22 -9 -13 -11 -13 -19 0 -6 9
-6 19 1 27 10 12 28 9 28 -5z m2765 -8 c12 -18 13 -29 6 -38 -6 -7 -9 -15 -6
-18 3 -2 -5 -4 -18 -3 -16 1 -23 9 -25 29 -7 57 15 73 43 30z m-5905 -4 c0 -5
-4 -10 -10 -10 -5 0 -10 5 -10 10 0 6 5 10 10 10 6 0 10 -4 10 -10z m2190 -9
c0 -10 3 -33 6 -50 5 -24 3 -31 -8 -31 -15 0 -33 75 -22 92 9 15 24 8 24 -11z
m2976 -68 c-7 -17 -8 -17 -17 0 -6 9 -7 27 -3 40 l7 22 10 -22 c5 -12 6 -30 3
-40z m-546 -7 c0 -32 -22 -58 -39 -47 -18 12 -19 70 -1 81 19 12 40 -7 40 -34z
m-3595 -32 c-2 -11 -4 -27 -4 -37 -1 -10 -5 -16 -10 -13 -8 5 -8 38 -1 101 1
6 5 0 10 -11 5 -12 7 -30 5 -40z m4887 16 c20 -18 20 -23 9 -61 -11 -38 -15
-40 -39 -34 -33 8 -31 5 -34 41 -2 32 17 74 33 74 5 0 19 -9 31 -20z m-5204
-15 c-3 -3 -9 2 -12 12 -6 14 -5 15 5 6 7 -7 10 -15 7 -18z m5412 -30 c0 -19
-5 -37 -11 -40 -17 -11 -47 24 -41 48 12 49 52 42 52 -8z m100 6 c-1 -17 -19
-31 -33 -25 -20 7 -22 35 -5 52 10 10 15 9 25 -5 7 -9 13 -19 13 -22z m287 24
c7 -20 -2 -29 -21 -22 -9 4 -13 13 -10 22 8 19 23 19 31 0z m-794 -65 c-8 -29
-18 -32 -40 -12 -20 17 -20 35 0 61 9 11 14 9 28 -8 10 -12 15 -30 12 -41z
m-5003 40 c0 -5 -5 -10 -11 -10 -5 0 -7 5 -4 10 3 6 8 10 11 10 2 0 4 -4 4
-10z m2163 -27 c7 -40 4 -49 -13 -38 -6 4 -8 15 -5 25 3 10 1 21 -5 25 -6 3
-8 11 -5 16 12 18 23 8 28 -28z m273 -12 c-10 -16 -36 -13 -43 5 -8 22 18 37
36 20 7 -8 10 -19 7 -25z m-396 -18 c0 -20 -4 -24 -22 -21 -26 3 -35 32 -17
54 16 19 39 0 39 -33z m-3670 17 c0 -5 -2 -10 -4 -10 -3 0 -8 5 -11 10 -3 6
-1 10 4 10 6 0 11 -4 11 -10z m3247 -53 c-6 -19 -22 -6 -25 20 -2 27 -2 27 13
8 8 -10 14 -23 12 -28z m2401 7 c3 -31 -18 -52 -39 -38 -11 6 -12 58 -2 68 16
16 38 -1 41 -30z m-3240 -22 c2 -32 -1 -44 -14 -49 -36 -14 -54 66 -20 89 21
14 31 2 34 -40z m2532 -1 c14 -26 13 -44 -4 -66 -12 -16 -16 -17 -30 -6 -19
16 -21 62 -4 79 17 17 26 15 38 -7z m-3144 -4 c6 -18 -13 -67 -26 -67 -16 0
-23 26 -16 55 7 27 33 34 42 12z m3024 -21 c0 -37 -21 -54 -40 -31 -18 21 -4
65 20 65 16 0 20 -7 20 -34z m-380 5 c14 -27 13 -58 -4 -64 -19 -8 -36 12 -36
43 0 43 22 54 40 21z m250 -34 c0 -25 -4 -37 -9 -31 -17 17 -18 89 -1 79 6 -3
10 -25 10 -48z m2433 -8 c-4 -4 -16 -2 -26 6 -18 13 -18 14 5 37 l23 23 3 -29
c2 -16 0 -32 -5 -37z m-497 -1 c-3 -50 -6 -54 -35 -49 -32 5 -14 101 19 101
16 0 18 -7 16 -52z m-4999 10 c-3 -8 -6 -5 -6 6 -1 11 2 17 5 13 3 -3 4 -12 1
-19z m2443 -27 c0 -10 -7 -24 -16 -32 -13 -10 -17 -10 -25 2 -10 16 -12 53 -3
62 11 11 44 -13 44 -32z m2754 8 c-8 -13 -24 -1 -24 18 0 13 3 13 15 3 8 -7
12 -16 9 -21z m-5757 -1 c-3 -8 -6 -5 -6 6 -1 11 2 17 5 13 3 -3 4 -12 1 -19z
m2205 -47 c-1 -39 -8 -51 -32 -51 -41 0 -53 69 -18 94 19 14 24 14 37 2 8 -8
14 -29 13 -45z m385 13 c0 -30 -3 -41 -9 -31 -4 9 -6 26 -4 39 3 13 5 26 5 31
1 4 3 7 5 7 2 0 4 -21 3 -46z m2433 5 c0 -26 -3 -30 -22 -27 -29 4 -36 37 -13
55 24 17 35 8 35 -28z m-2290 27 c0 -2 -3 -11 -6 -20 -9 -23 -34 -20 -34 4 0
13 7 20 20 20 11 0 20 -2 20 -4z m-2870 -38 c0 -5 -8 -8 -17 -7 -10 0 -13 3
-6 5 7 3 9 13 6 22 -4 15 -3 15 6 2 6 -8 11 -18 11 -22z m2190 -9 c0 -27 -2
-30 -15 -19 -8 7 -15 21 -15 31 0 11 7 19 15 19 10 0 15 -10 15 -31z m2638 4
c4 -24 -26 -40 -34 -18 -8 21 3 47 19 43 6 -3 13 -14 15 -25z m-5588 7 c0 -5
-4 -10 -10 -10 -5 0 -10 5 -10 10 0 6 5 10 10 10 6 0 10 -4 10 -10z m2376 -25
c23 -34 12 -77 -19 -73 -17 2 -23 11 -25 36 -6 63 15 81 44 37z m-136 -40 c0
-31 -4 -45 -13 -45 -23 0 -28 13 -11 31 10 11 12 19 5 24 -16 9 -13 35 4 35
11 0 15 -12 15 -45z m2528 1 c-2 -23 -8 -31 -23 -31 -23 0 -33 38 -15 60 19
23 41 6 38 -29z m1884 32 c22 -18 29 -69 13 -92 -10 -13 -11 -24 -4 -37 6 -13
6 -25 -3 -39 -17 -26 -42 -27 -35 0 3 14 0 20 -10 20 -11 0 -13 3 -5 13 7 8 5
22 -7 47 -19 41 -19 47 -3 78 14 25 31 28 54 10z m685 -10 c-3 -8 -6 -5 -6 6
-1 11 2 17 5 13 3 -3 4 -12 1 -19z m-5249 0 c18 -18 15 -68 -4 -75 -34 -13
-61 27 -48 70 6 20 34 23 52 5z m2548 -30 c-2 -18 -5 -34 -5 -36 -1 -2 -6 0
-11 3 -6 4 -7 12 -3 18 8 12 9 17 12 37 0 6 3 10 7 10 3 0 3 -15 0 -32z m4754
12 c0 -5 -5 -10 -11 -10 -5 0 -7 5 -4 10 3 6 8 10 11 10 2 0 4 -4 4 -10z
m-6440 -15 c0 -8 -4 -15 -9 -15 -13 0 -22 16 -14 24 11 11 23 6 23 -9z m1319
-42 c1 -7 -3 -13 -8 -13 -10 0 -20 57 -12 66 6 5 18 -28 20 -53z m-2621 20 c8
-56 -49 -87 -68 -38 -13 35 7 67 40 63 17 -2 26 -10 28 -25z m6846 -89 c31
-79 47 -149 31 -132 -6 5 -85 228 -85 237 0 18 23 -27 54 -105z m-4347 80 c8
-21 -13 -42 -28 -27 -13 13 -5 43 11 43 6 0 13 -7 17 -16z m-2907 -14 c0 -5
-2 -10 -4 -10 -3 0 -8 5 -11 10 -3 6 -1 10 4 10 6 0 11 -4 11 -10z m4670 0 c0
-5 -4 -10 -10 -10 -5 0 -10 5 -10 10 0 6 5 10 10 10 6 0 10 -4 10 -10z m-5002
-25 c-3 -3 -9 2 -12 12 -6 14 -5 15 5 6 7 -7 10 -15 7 -18z m2318 0 c14 -21
15 -31 6 -50 -18 -40 -48 -28 -53 20 -6 56 20 72 47 30z m5334 -20 c24 -39 23
-71 -2 -34 -17 26 -32 69 -24 69 2 0 14 -16 26 -35z m-7476 16 c3 -5 -1 -14
-9 -21 -12 -10 -18 -10 -30 0 -18 15 -11 30 15 30 10 0 21 -4 24 -9z m160 0
c3 -5 -1 -11 -9 -15 -15 -6 -29 7 -18 18 9 9 21 8 27 -3z m4112 -23 c-3 -13
-5 -26 -5 -30 -1 -12 -29 -10 -36 2 -11 18 6 50 26 50 14 0 18 -6 15 -22z
m222 1 c-2 -6 -8 -10 -13 -10 -5 0 -11 4 -13 10 -2 6 4 11 13 11 9 0 15 -5 13
-11z m-5233 -9 c3 -5 1 -10 -4 -10 -6 0 -11 5 -11 10 0 6 2 10 4 10 3 0 8 -4
11 -10z m2045 -30 c0 -25 -34 -65 -48 -56 -19 11 -15 74 5 85 21 11 43 -3 43
-29z m6884 15 c-4 -8 -8 -15 -10 -15 -2 0 -4 7 -4 15 0 8 4 15 10 15 5 0 7 -7
4 -15z m-4506 -7 c-6 -18 -28 -21 -28 -4 0 9 7 16 16 16 9 0 14 -5 12 -12z
m1682 -7 c27 -51 1 -102 -38 -75 -24 17 -27 30 -12 68 11 31 35 34 50 7z
m2257 -3 c13 -18 47 -137 41 -143 -5 -5 -68 130 -68 146 0 13 16 11 27 -3z
m-2355 -23 c14 -30 -5 -57 -36 -53 -21 3 -33 36 -22 64 9 23 45 16 58 -11z
m-9347 5 c3 -6 -1 -7 -9 -4 -18 7 -21 14 -7 14 6 0 13 -4 16 -10z m7265 -26
c0 -14 -6 -24 -14 -24 -19 0 -26 21 -14 43 12 23 28 12 28 -19z m4987 14 c-3
-8 -6 -5 -6 6 -1 11 2 17 5 13 3 -3 4 -12 1 -19z m-5238 -2 c20 -24 10 -70
-16 -74 -26 -4 -38 25 -24 62 12 29 23 33 40 12z m611 0 c0 -8 -4 -18 -10 -21
-5 -3 -10 3 -10 14 0 12 5 21 10 21 6 0 10 -6 10 -14z m-1130 -31 c25 -30 8
-95 -25 -95 -7 0 -18 13 -25 30 -10 25 -10 34 4 55 19 29 29 31 46 10z m133
-40 c1 -22 -3 -30 -17 -33 -32 -7 -50 50 -24 76 17 17 38 -6 41 -43z m2277 32
c0 -13 -3 -26 -6 -30 -12 -12 -34 6 -34 29 0 17 6 24 20 24 14 0 20 -7 20 -23z
m-2677 -52 c0 -32 -16 -50 -37 -42 -19 8 -22 67 -4 85 17 17 41 -8 41 -43z
m2005 -9 c-4 -25 -33 -33 -42 -11 -3 9 -1 25 5 36 8 17 13 18 25 8 8 -7 14
-22 12 -33z m-2431 16 c6 -4 14 -19 18 -33 7 -29 -15 -55 -40 -46 -20 8 -30
54 -15 72 14 17 20 18 37 7z m4013 -5 c0 -5 6 -7 12 -5 13 5 38 -14 38 -28 0
-4 -3 -4 -6 -1 -4 3 -16 0 -28 -8 -11 -8 -28 -15 -38 -15 -11 0 -16 -7 -15
-20 1 -12 7 -18 14 -16 16 6 17 -16 2 -31 -8 -8 -7 -13 2 -18 8 -5 10 -4 5 3
-10 17 3 15 20 -3 9 -8 11 -15 5 -15 -6 0 -11 -5 -11 -12 0 -6 3 -8 7 -5 3 4
12 2 20 -4 10 -9 13 -8 13 2 0 11 2 11 9 -1 6 -8 8 -17 5 -21 -2 -4 12 -17 31
-30 19 -13 35 -29 35 -35 0 -7 9 -14 20 -17 11 -3 23 -13 26 -24 7 -19 93
-103 107 -103 5 0 5 -5 1 -12 -5 -8 -2 -9 9 -5 10 3 17 2 17 -3 0 -6 8 -10 18
-11 14 0 14 -2 -3 -9 -14 -6 -16 -9 -5 -10 8 -2 18 -2 22 -1 4 0 4 -7 1 -16
-4 -10 -2 -14 5 -9 6 3 13 2 16 -3 3 -5 32 -12 63 -16 32 -4 66 -11 75 -16 10
-6 19 -5 23 1 12 19 25 10 23 -15 -1 -14 -6 -25 -10 -25 -3 0 -19 -5 -34 -10
-26 -10 -26 -11 -8 -24 13 -10 24 -11 36 -5 14 8 16 6 11 -7 -5 -14 -1 -16 20
-12 15 3 24 2 22 -2 -7 -11 24 -22 37 -13 7 4 8 1 3 -7 -5 -8 -3 -11 6 -8 8 3
28 0 44 -7 17 -6 47 -11 68 -10 20 2 40 -2 43 -6 3 -5 10 -7 15 -4 16 10 50
14 44 6 -3 -5 1 -11 8 -14 29 -11 53 -184 38 -276 -11 -66 -34 -105 -66 -108
-94 -9 -237 -1 -243 15 -2 7 -8 10 -13 6 -5 -3 -9 2 -9 10 0 9 8 16 18 16 13
0 14 2 4 9 -8 4 -24 7 -38 5 -13 -1 -24 2 -24 6 0 5 -14 11 -30 15 -17 4 -52
22 -80 41 -27 19 -54 34 -59 34 -5 0 -27 18 -49 39 -22 21 -49 42 -60 46 -12
3 -19 12 -16 19 2 7 -4 23 -16 36 -11 13 -20 19 -21 14 0 -5 -5 0 -10 11 -5
11 -18 34 -29 50 -11 17 -25 40 -31 53 -11 19 -39 28 -71 23 -5 0 -8 3 -8 9 0
5 -7 6 -17 3 -11 -5 -14 -3 -8 6 5 10 2 11 -13 7 -19 -6 -20 -5 -9 18 7 14 22
30 33 37 19 10 20 15 11 40 -6 16 -15 29 -19 29 -4 0 -8 9 -8 20 0 11 -5 20
-11 20 -5 0 -7 5 -4 10 3 6 1 10 -5 10 -7 0 -10 6 -7 13 2 6 -3 21 -12 31 -9
11 -10 16 -3 12 15 -9 15 -1 1 25 -5 11 -13 18 -17 15 -4 -2 -7 9 -7 25 0 16
4 29 8 29 5 0 6 4 2 10 -3 5 -13 6 -23 3 -9 -3 -14 -3 -10 1 3 4 2 21 -2 37
-6 22 -6 28 3 23 8 -5 8 -3 0 7 -7 7 -13 21 -13 30 0 10 -4 21 -10 24 -6 4 -7
-1 -4 -12 4 -14 4 -15 -4 -4 -12 16 -4 51 12 51 32 1 -21 17 -59 18 -24 1 -56
7 -71 12 -26 10 -27 11 -8 28 10 10 35 23 54 29 41 13 190 13 190 0z m-6716
-36 c4 -5 -1 -8 -9 -7 -21 3 -31 16 -12 16 9 0 18 -4 21 -9z m1983 -3 c17 -21
23 -60 12 -80 -12 -22 -55 -24 -63 -2 -21 56 20 122 51 82z m149 -41 c2 -27
-1 -40 -12 -44 -22 -8 -38 19 -20 33 9 6 11 15 6 24 -10 16 -3 33 12 28 6 -2
12 -21 14 -41z m142 -3 c-4 -39 -32 -39 -36 0 -4 29 16 52 31 37 5 -5 7 -21 5
-37z m1892 37 c0 -6 -4 -13 -10 -16 -5 -3 -10 1 -10 9 0 9 5 16 10 16 6 0 10
-4 10 -9z m125 -31 c0 -51 -29 -48 -33 3 -3 33 -1 38 15 35 13 -2 18 -12 18
-38z m-4645 20 c0 -5 -2 -10 -4 -10 -3 0 -8 5 -11 10 -3 6 -1 10 4 10 6 0 11
-4 11 -10z m90 0 c0 -5 -2 -10 -4 -10 -3 0 -8 5 -11 10 -3 6 -1 10 4 10 6 0
11 -4 11 -10z m2101 -19 c0 -9 2 -24 4 -33 4 -20 -20 -43 -35 -33 -11 7 -14
77 -4 88 10 10 34 -4 35 -22z m-2366 9 c3 -5 1 -10 -4 -10 -6 0 -11 5 -11 10
0 6 2 10 4 10 3 0 8 -4 11 -10z m4308 -7 c15 -53 16 -72 6 -79 -22 -13 -47 47
-34 84 6 18 23 15 28 -5z m-2108 -42 c0 -55 -10 -74 -20 -41 -8 24 2 90 13 90
4 0 7 -22 7 -49z m2370 9 c0 -36 -29 -33 -33 3 -3 23 0 28 15 25 12 -2 18 -12
18 -28z m-500 -3 c9 -34 -11 -77 -35 -77 -28 0 -44 38 -31 73 14 35 58 38 66
4z m123 -13 c2 -22 -2 -33 -13 -38 -22 -8 -35 1 -35 24 0 56 43 68 48 14z
m-4448 -4 c0 -5 -4 -10 -10 -10 -5 0 -10 5 -10 10 0 6 5 10 10 10 6 0 10 -4
10 -10z m1758 -35 c-4 -11 -28 -16 -28 -6 0 12 13 22 23 18 5 -1 7 -7 5 -12z
m2275 -31 c-9 -23 -28 -10 -31 22 -4 28 -3 28 16 10 12 -10 18 -24 15 -32z
m-2679 10 c4 -10 1 -14 -6 -12 -15 5 -23 28 -10 28 5 0 13 -7 16 -16z m1995 3
c8 -10 7 -17 -1 -25 -18 -18 -38 -14 -38 6 0 32 20 42 39 19z m146 3 c3 -5 -2
-24 -10 -41 -15 -29 -18 -30 -33 -16 -13 13 -13 21 -4 42 12 25 36 33 47 15z
m-432 -54 c4 -27 4 -53 0 -57 -17 -17 -34 9 -40 60 -5 48 -4 53 13 49 14 -2
21 -16 27 -52z m6758 14 c-7 -3 -9 -14 -5 -23 3 -10 1 -17 -5 -17 -6 0 -20 -9
-32 -21 -11 -11 -32 -23 -45 -25 -38 -7 -31 28 11 50 19 10 42 27 51 37 9 10
21 16 26 13 6 -4 6 -9 -1 -14z m-9386 -20 c3 -5 -1 -10 -10 -10 -9 0 -13 5
-10 10 3 6 8 10 10 10 2 0 7 -4 10 -10z m-165 -26 c0 -2 -7 -4 -15 -4 -8 0
-15 4 -15 10 0 5 7 7 15 4 8 -4 15 -8 15 -10z m2214 -10 c8 -30 -8 -54 -35
-54 -24 0 -39 29 -28 58 12 32 55 30 63 -4z m7213 -18 c0 -7 -11 -13 -24 -13
-29 0 -29 5 0 17 12 5 22 9 23 9 0 1 1 -5 1 -13z m-4772 -115 c-3 -6 -11 -8
-17 -5 -6 4 -5 9 3 15 16 10 23 4 14 -10z m-234 -14 c-1 -12 -15 -9 -19 4 -3
6 1 10 8 8 6 -3 11 -8 11 -12z m194 -4 c-2 -10 -4 -22 -5 -28 -1 -5 -5 -1 -9
10 -5 12 -4 23 3 27 15 10 15 10 11 -9z m-4355 3 c0 -3 -4 -8 -10 -11 -5 -3
-10 -1 -10 4 0 6 5 11 10 11 6 0 10 -2 10 -4z m4220 -5 c0 -5 -7 -11 -15 -15
-9 -3 -15 0 -15 9 0 8 7 15 15 15 8 0 15 -4 15 -9z m-450 -45 c0 -8 -8 -16
-17 -18 -28 -6 -73 3 -73 14 0 6 6 8 13 5 8 -3 20 -1 28 4 22 13 49 11 49 -5z
m-2300 -29 c0 -5 -4 -5 -10 -2 -5 3 -10 14 -10 23 0 15 2 15 10 2 5 -8 10 -19
10 -23z m2030 3 c-18 -11 -24 -6 -16 16 5 14 9 15 19 5 9 -9 9 -14 -3 -21z
m-1875 10 c3 -5 1 -10 -4 -10 -6 0 -11 5 -11 10 0 6 2 10 4 10 3 0 8 -4 11
-10z m-2145 -20 c0 -13 -5 -18 -15 -14 -12 5 -13 10 -4 20 15 19 19 18 19 -6z
m3690 -15 c0 -1 -7 -8 -15 -15 -13 -10 -15 -9 -15 8 0 15 5 20 15 16 8 -4 15
-7 15 -9z m70 -6 c0 -5 -7 -9 -15 -9 -9 0 -12 6 -9 15 6 15 24 11 24 -6z
m-2327 -9 c3 -11 2 -20 -3 -20 -12 0 -31 26 -23 33 11 12 21 7 26 -13z m1970
-25 c-5 -13 -23 -22 -23 -11 0 15 14 35 21 31 4 -3 6 -12 2 -20z m-2379 -11
c3 -8 -1 -14 -9 -14 -8 0 -15 2 -15 4 0 2 -3 12 -6 20 -4 12 -2 15 9 10 9 -3
18 -12 21 -20z m2166 0 c0 -8 -4 -14 -10 -14 -5 0 -10 9 -10 21 0 11 5 17 10
14 6 -3 10 -13 10 -21z m70 6 c0 -11 -6 -20 -13 -20 -19 0 -27 10 -20 26 8 21
33 17 33 -6z m-2070 6 c0 -3 -4 -8 -10 -11 -5 -3 -10 -1 -10 4 0 6 5 11 10 11
6 0 10 -2 10 -4z m1660 -35 c0 -4 -9 -7 -20 -8 -11 -1 -20 4 -20 12 0 8 7 11
20 8 11 -3 20 -8 20 -12z m-2155 -1 c-3 -5 -10 -10 -16 -10 -5 0 -9 5 -9 10 0
6 7 10 16 10 8 0 12 -4 9 -10z m-260 -20 c3 -5 2 -10 -4 -10 -5 0 -13 5 -16
10 -3 6 -2 10 4 10 5 0 13 -4 16 -10z m92 4 c-3 -3 -12 -4 -19 -1 -8 3 -5 6 6
6 11 1 17 -2 13 -5z m2069 -31 c-11 -11 -19 6 -11 24 8 17 8 17 12 0 3 -10 2
-21 -1 -24z m-63 12 c7 -16 -8 -29 -23 -20 -10 6 -2 35 10 35 4 0 10 -7 13
-15z m-769 -60 c4 -10 -1 -15 -14 -15 -20 0 -26 11 -13 23 10 11 20 8 27 -8z
m-406 -51 c-10 -10 -28 6 -28 24 0 15 1 15 17 -1 9 -9 14 -19 11 -23z m162 26
c0 -5 -5 -10 -11 -10 -5 0 -7 5 -4 10 3 6 8 10 11 10 2 0 4 -4 4 -10z m160 -4
c0 -11 -19 -15 -25 -6 -3 5 1 10 9 10 9 0 16 -2 16 -4z m-1240 -86 c0 -5 -7
-7 -15 -4 -8 4 -15 8 -15 10 0 2 7 4 15 4 8 0 15 -4 15 -10z m350 0 c0 -5 -5
-10 -11 -10 -5 0 -7 5 -4 10 3 6 8 10 11 10 2 0 4 -4 4 -10z m-2086 -8 c3 -5
-1 -9 -9 -9 -8 0 -12 4 -9 9 3 4 7 8 9 8 2 0 6 -4 9 -8z m1556 -2 c0 -5 -5
-10 -11 -10 -5 0 -7 5 -4 10 3 6 8 10 11 10 2 0 4 -4 4 -10z m445 -150 c-3 -5
-13 -10 -21 -10 -8 0 -12 5 -9 10 3 6 13 10 21 10 8 0 12 -4 9 -10z m-175 -16
c0 -8 -5 -12 -10 -9 -6 4 -8 11 -5 16 9 14 15 11 15 -7z m-89 -7 c-1 -12 -15
-9 -19 4 -3 6 1 10 8 8 6 -3 11 -8 11 -12z m-161 -17 c0 -5 -7 -7 -15 -4 -8 4
-15 8 -15 10 0 2 7 4 15 4 8 0 15 -4 15 -10z m1873 3 c3 -5 1 -17 -3 -28 -6
-17 -7 -16 -12 8 -5 25 5 37 15 20z m-553 -59 c0 -8 -4 -12 -10 -9 -5 3 -10
13 -10 21 0 8 5 12 10 9 6 -3 10 -13 10 -21z m-1583 -9 c0 -8 -6 -15 -14 -15
-7 0 -13 7 -13 15 0 8 6 15 13 15 8 0 14 -7 14 -15z m1353 -25 c0 -15 -5 -12
-26 11 -19 22 -19 22 4 10 12 -6 22 -16 22 -21z m90 8 c0 -4 -5 -8 -11 -8 -8
0 -8 -5 1 -15 10 -13 9 -15 -9 -15 -18 0 -20 3 -12 19 6 10 8 20 6 23 -3 3 2
5 10 5 8 0 15 -4 15 -9z m-260 -28 c0 -5 -2 -10 -4 -10 -3 0 -8 5 -11 10 -3 6
-1 10 4 10 6 0 11 -4 11 -10z m-406 -31 c-6 -11 -24 -2 -24 11 0 5 7 7 15 4 8
-4 12 -10 9 -15z m-264 -19 c0 -5 -4 -10 -10 -10 -5 0 -10 5 -10 10 0 6 5 10
10 10 6 0 10 -4 10 -10z m-80 -4 c0 -3 -4 -8 -10 -11 -5 -3 -10 -1 -10 4 0 6
5 11 10 11 6 0 10 -2 10 -4z m-170 -20 c0 -11 -19 -15 -25 -6 -3 5 1 10 9 10
9 0 16 -2 16 -4z m1720 -23 c0 -22 -2 -25 -10 -13 -13 20 -13 40 0 40 6 0 10
-12 10 -27z m-557 -44 c3 -13 1 -19 -6 -16 -15 5 -22 37 -9 37 5 0 12 -9 15
-21z m-413 -45 c0 -8 -4 -12 -10 -9 -5 3 -10 10 -10 16 0 5 5 9 10 9 6 0 10
-7 10 -16z m180 12 c0 -11 -19 -15 -25 -6 -3 5 1 10 9 10 9 0 16 -2 16 -4z
m-425 -25 c3 -5 1 -12 -5 -16 -5 -3 -10 1 -10 9 0 18 6 21 15 7z m-245 -31 c0
-5 -4 -10 -10 -10 -5 0 -10 5 -10 10 0 6 5 10 10 10 6 0 10 -4 10 -10z m-87
-17 c-7 -2 -19 -2 -25 0 -7 3 -2 5 12 5 14 0 19 -2 13 -5z m-173 -13 c0 -5 -5
-10 -11 -10 -5 0 -7 5 -4 10 3 6 8 10 11 10 2 0 4 -4 4 -10z m1720 -5 c0 -8
-2 -15 -4 -15 -2 0 -6 7 -10 15 -3 8 -1 15 4 15 6 0 10 -7 10 -15z m-972 -106
c-3 -8 -7 -3 -11 10 -4 17 -3 21 5 13 5 -5 8 -16 6 -23z m-314 -24 c3 -8 1
-15 -4 -15 -6 0 -10 7 -10 15 0 8 2 15 4 15 2 0 6 -7 10 -15z m-2969 -5 c3 -5
1 -10 -4 -10 -6 0 -11 5 -11 10 0 6 2 10 4 10 3 0 8 -4 11 -10z m4265 -30 c0
-5 -7 -7 -15 -4 -8 4 -15 8 -15 10 0 2 7 4 15 4 8 0 15 -4 15 -10z m7833 2
c15 -4 18 -12 14 -36 -3 -19 3 -45 14 -68 23 -45 24 -58 4 -58 -8 0 -15 -6
-15 -12 0 -10 -3 -9 -9 1 -6 9 -14 10 -27 4 -11 -5 -34 -9 -51 -9 -38 1 -43
-8 -10 -19 19 -6 16 -9 -23 -19 -25 -7 -58 -18 -73 -24 -16 -7 -39 -12 -52
-12 -13 0 -31 -8 -41 -17 -9 -9 -26 -19 -37 -20 -12 -2 -28 -10 -37 -18 -9 -8
-20 -12 -23 -8 -4 3 -7 1 -7 -5 0 -10 -26 -22 -59 -28 -8 -2 -18 -10 -23 -18
-5 -9 -17 -16 -27 -16 -25 0 -90 -28 -108 -46 -8 -8 -19 -12 -24 -9 -5 4 -9
-1 -9 -9 0 -9 -4 -16 -10 -16 -5 0 -10 -7 -10 -16 0 -8 -5 -12 -10 -9 -6 3
-17 -1 -26 -9 -8 -9 -25 -16 -37 -17 -110 -6 -118 -5 -127 10 -8 14 -9 14 -10
1 0 -16 -40 -23 -40 -8 0 4 -4 8 -9 8 -5 0 -7 -9 -4 -21 6 -21 5 -21 -27 -4
-18 9 -29 12 -26 6 13 -20 -5 -33 -19 -14 -12 16 -13 14 -8 -12 5 -29 5 -29
-10 -10 -8 11 -13 23 -11 27 3 5 0 8 -5 8 -14 0 -14 -23 0 -37 8 -8 5 -14 -10
-22 -17 -10 -21 -9 -21 4 0 19 -70 22 -70 3 -1 -7 -10 10 -21 37 -29 70 -34
78 -49 83 -7 3 -10 0 -7 -5 4 -7 -9 -10 -33 -9 -22 0 -40 4 -40 7 0 4 -11 9
-25 11 -14 3 -25 2 -25 -2 0 -3 -12 -5 -27 -3 -24 4 -34 -3 -64 -44 -19 -26
-38 -55 -42 -63 -4 -8 -21 -37 -38 -65 -41 -68 -61 -116 -61 -142 0 -13 -5
-23 -10 -23 -5 0 -6 -5 -3 -10 4 -6 3 -10 -2 -9 -21 4 -32 -3 -39 -23 -5 -13
-7 -26 -6 -30 1 -5 -2 -8 -7 -8 -5 0 -14 -13 -21 -30 -7 -18 -17 -27 -24 -23
-6 4 -4 -2 4 -12 8 -10 10 -16 4 -12 -6 3 -17 -5 -24 -18 -7 -14 -19 -25 -27
-25 -7 0 -13 -6 -13 -12 0 -10 -2 -10 -8 -1 -8 13 -29 12 -51 -1 -11 -7 -13
-5 -8 8 6 14 3 17 -10 12 -15 -5 -14 -3 2 9 20 16 21 20 24 60 1 17 3 18 11 5
9 -13 14 -7 11 13 0 4 3 7 9 7 6 0 9 3 8 8 -3 17 15 62 33 78 10 9 16 20 14
25 -3 4 -1 10 5 14 5 3 10 19 10 36 0 18 5 29 14 29 8 0 17 16 21 38 4 20 11
42 16 49 14 16 -6 26 -55 27 -31 1 -41 5 -40 17 1 9 -4 16 -10 16 -31 -1 -47
4 -41 13 3 5 12 7 19 4 8 -3 17 -1 21 5 3 7 0 8 -9 5 -30 -11 -16 13 22 39 57
40 106 57 164 57 70 1 235 34 256 52 9 8 37 22 62 33 25 10 108 49 185 86 171
83 510 209 565 209 21 0 51 -5 65 -10 30 -11 45 -8 175 39 82 30 171 39 233
23z m-9553 -18 c0 -8 -19 -13 -24 -6 -3 5 1 9 9 9 8 0 15 -2 15 -3z m1154 -49
c3 -8 1 -15 -4 -15 -6 0 -10 7 -10 15 0 8 2 15 4 15 2 0 6 -7 10 -15z m8536
-24 c0 -6 -4 -13 -10 -16 -5 -3 -10 1 -10 9 0 9 5 16 10 16 6 0 10 -4 10 -9z
m-30 -5 c0 -3 -4 -8 -10 -11 -5 -3 -10 -1 -10 4 0 6 5 11 10 11 6 0 10 -2 10
-4z m-8905 -26 c3 -6 -1 -7 -9 -4 -18 7 -21 14 -7 14 6 0 13 -4 16 -10z m8932
-22 c-3 -8 -6 -5 -6 6 -1 11 2 17 5 13 3 -3 4 -12 1 -19z m-9262 -8 c3 -5 1
-10 -4 -10 -6 0 -11 5 -11 10 0 6 2 10 4 10 3 0 8 -4 11 -10z m-425 -50 c0 -5
-4 -10 -10 -10 -5 0 -10 5 -10 10 0 6 5 10 10 10 6 0 10 -4 10 -10z m440 -310
c0 -5 -5 -10 -11 -10 -5 0 -7 5 -4 10 3 6 8 10 11 10 2 0 4 -4 4 -10z m1290
-20 c0 -5 -2 -10 -4 -10 -3 0 -8 5 -11 10 -3 6 -1 10 4 10 6 0 11 -4 11 -10z
m3946 -10 c8 0 14 -6 14 -14 0 -14 -45 -31 -59 -21 -5 3 -28 -2 -51 -10 -56
-20 -70 -19 -70 5 0 14 10 22 38 29 49 14 84 19 100 15 8 -2 20 -4 28 -4z
m-3866 -149 c0 -6 -4 -13 -10 -16 -5 -3 -10 1 -10 9 0 9 5 16 10 16 6 0 10 -4
10 -9z m-86 -17 c3 -8 2 -12 -4 -9 -6 3 -10 10 -10 16 0 14 7 11 14 -7z m-229
-14 c3 -5 1 -10 -4 -10 -6 0 -11 5 -11 10 0 6 2 10 4 10 3 0 8 -4 11 -10z m5
-34 c0 -3 -4 -8 -10 -11 -5 -3 -10 -1 -10 4 0 6 5 11 10 11 6 0 10 -2 10 -4z
m2768 -34 c2 -22 -2 -34 -13 -38 -9 -4 -18 -4 -21 -1 -10 10 -11 42 -2 60 14
27 33 15 36 -21z m3374 -43 c-26 -64 -63 -99 -98 -93 -38 7 -38 7 -19 43 18
35 89 91 116 91 17 0 17 -2 1 -41z m1033 -19 c3 -5 13 -10 21 -10 10 0 12 5 8
13 -5 8 -3 8 9 -2 9 -7 14 -18 11 -23 -3 -5 2 -16 12 -23 11 -8 15 -15 9 -15
-5 0 -3 -4 5 -10 11 -7 9 -11 -13 -19 -18 -7 -26 -16 -21 -23 3 -7 -5 0 -19
15 -27 30 -60 29 -35 -1 11 -13 11 -14 -2 -10 -8 3 -14 13 -13 24 1 10 -3 26
-8 36 -7 13 -6 18 3 16 8 -2 12 6 11 20 -3 22 11 30 22 12z m-48 -76 c-3 -3
-12 -4 -19 -1 -8 3 -5 6 6 6 11 1 17 -2 13 -5z m-1053 -28 c-3 -12 -12 -28
-20 -36 -12 -12 -14 -12 -14 3 0 10 5 15 10 12 6 -3 10 -1 10 6 0 6 -8 9 -20
6 -24 -6 -25 -3 -6 16 22 22 47 18 40 -7z m-3686 -52 c4 -30 -14 -40 -91 -53
-53 -9 -72 -9 -83 0 -12 10 -17 8 -28 -6 -9 -13 -13 -14 -13 -4 0 8 -4 23 -9
33 -6 16 -4 18 9 13 9 -4 24 -10 32 -13 8 -3 15 -2 15 4 0 10 68 38 110 45 41
7 55 3 58 -19z m52 16 c0 -5 -4 -10 -10 -10 -5 0 -10 5 -10 10 0 6 5 10 10 10
6 0 10 -4 10 -10z m-4170 -19 c0 -6 -4 -13 -10 -16 -5 -3 -10 1 -10 9 0 9 5
16 10 16 6 0 10 -4 10 -9z m3080 -20 c0 -27 -3 -30 -51 -36 -34 -5 -54 -3 -58
4 -5 7 -14 5 -27 -8 -12 -10 -39 -22 -62 -26 -40 -6 -42 -5 -42 18 0 13 7 31
16 38 14 11 18 10 30 -6 14 -19 15 -19 21 3 4 18 12 23 32 20 14 -1 32 1 39 6
7 4 23 5 35 2 12 -3 29 -1 37 4 24 15 30 12 30 -19z m4867 7 c-3 -8 -6 -5 -6
6 -1 11 2 17 5 13 3 -3 4 -12 1 -19z m103 16 c0 -8 -19 -13 -24 -6 -3 5 1 9 9
9 8 0 15 -2 15 -3z m-10 -35 c0 -4 -5 -11 -12 -15 -7 -4 -8 -3 -4 4 9 16 -7
15 -22 0 -9 -9 -12 -8 -12 5 0 9 -5 16 -11 15 -6 -2 -13 2 -16 9 -3 8 6 9 36
1 23 -6 41 -14 41 -19z m887 2 c1 -14 -3 -18 -13 -14 -17 6 -18 20 -1 26 6 3
12 6 12 6 1 1 1 -8 2 -18z m418 -41 c3 -5 1 -10 -4 -10 -6 0 -11 5 -11 10 0 6
2 10 4 10 3 0 8 -4 11 -10z m-1725 -120 c-22 -32 -30 -37 -30 -20 0 11 36 50
46 50 3 0 -4 -13 -16 -30z m1416 -43 c10 4 12 0 8 -11 -5 -13 -9 -14 -20 -5
-8 6 -14 17 -13 23 0 7 2 7 5 -1 3 -7 12 -9 20 -6z m-35 -29 c3 -5 27 -11 52
-13 38 -3 100 -24 75 -25 -18 0 106 -101 177 -145 44 -26 115 -75 158 -107 99
-76 165 -96 292 -91 50 2 118 13 152 24 75 23 74 23 67 4 -4 -8 -12 -15 -20
-15 -8 0 -14 -4 -14 -10 0 -5 -5 -10 -12 -10 -6 0 -21 -9 -32 -19 -12 -11 -32
-21 -46 -23 -14 -2 -31 -7 -38 -11 -7 -5 -26 -9 -42 -9 -17 -1 -30 -4 -30 -8
0 -4 -11 -10 -25 -12 -13 -3 -22 -1 -19 3 3 5 -7 4 -23 -2 -15 -6 -30 -10 -33
-10 -3 1 -20 -4 -38 -10 -25 -8 -30 -14 -23 -23 15 -18 3 -27 -26 -20 -13 4
-30 1 -38 -6 -12 -10 -15 -9 -15 4 0 10 -4 15 -9 12 -4 -3 -7 5 -6 17 1 12 3
28 4 35 0 8 6 10 14 6 8 -5 8 -3 -1 7 -11 12 -16 11 -29 -6 -13 -16 -15 -17
-10 -2 5 13 1 17 -18 17 -13 0 -26 4 -30 9 -3 6 -31 8 -63 6 l-57 -4 44 14
c52 17 69 31 26 21 l-30 -7 25 21 25 20 -27 0 c-14 0 -35 3 -45 6 -15 5 -15 4
-3 -5 9 -6 10 -11 3 -11 -6 0 -19 -3 -29 -7 -12 -4 -15 -3 -10 5 11 17 -10 15
-28 -4 -12 -11 -20 -13 -33 -5 -14 8 -15 10 -3 11 8 0 29 11 45 25 l30 24 -40
-5 c-30 -4 -36 -3 -25 5 11 8 2 11 -40 12 -30 1 -48 3 -40 4 8 2 33 7 55 11
l40 8 -39 5 c-37 6 -39 7 -23 22 22 22 12 29 -41 29 -35 0 -45 4 -49 20 -3 11
-9 20 -14 20 -5 0 -9 4 -9 10 0 5 6 7 14 4 7 -3 16 3 20 12 9 23 2 28 -21 16
-12 -7 -25 -7 -34 -2 -7 5 -22 7 -33 4 -13 -4 -16 -2 -11 6 5 7 19 10 37 6 21
-4 28 -2 25 7 -2 6 -27 16 -55 20 -51 8 -66 22 -38 33 8 3 14 13 13 23 -1 13
-7 16 -24 13 -13 -2 -23 1 -23 7 0 6 5 11 10 11 6 0 10 5 10 10 0 6 -12 8 -27
5 -16 -3 -22 -2 -15 1 6 3 10 9 8 12 -6 11 78 10 85 0z m-206 -28 c-3 -5 -11
-10 -16 -10 -6 0 -7 5 -4 10 3 6 11 10 16 10 6 0 7 -4 4 -10z m139 -48 c2 -4
-4 -9 -15 -9 -11 -1 -17 2 -14 8 7 11 22 12 29 1z m1118 -166 c-3 -19 14 -22
21 -3 3 6 6 2 6 -10 1 -12 -9 -29 -21 -37 -20 -14 -23 -14 -31 -1 -4 8 -3 23
3 35 6 11 8 25 4 32 -4 6 -1 9 7 6 8 -3 13 -12 11 -22z m45 2 c-3 -8 -6 -5 -6
6 -1 11 2 17 5 13 3 -3 4 -12 1 -19z m-950 -16 c8 -5 9 -13 3 -22 -7 -10 -10
-11 -10 -2 0 6 -7 12 -16 12 -8 0 -12 5 -9 10 7 12 16 12 32 2z m113 -176 c0
-2 -7 -7 -16 -10 -8 -3 -12 -2 -9 4 6 10 25 14 25 6z m1488 -368 c6 -18 18
-61 26 -95 18 -80 38 -106 136 -183 44 -35 80 -67 80 -71 0 -4 -17 -15 -37
-24 -42 -20 -130 -71 -211 -122 -57 -36 -87 -36 -55 1 11 11 18 27 17 34 -1 6
-2 17 -3 23 0 5 -7 7 -13 3 -7 -4 -10 -4 -6 1 4 4 3 16 -3 26 -8 15 -6 19 7
19 19 0 10 14 -9 16 -7 0 -19 2 -28 2 -9 1 -16 9 -16 17 0 8 5 12 10 8 5 -3 6
4 2 17 -5 15 -2 25 6 31 10 6 11 9 2 9 -7 0 -22 -9 -33 -20 -11 -11 -25 -20
-30 -20 -6 0 4 13 22 28 29 27 31 33 30 88 -1 32 2 65 7 73 12 19 2 51 -15 44
-15 -6 -18 15 -8 65 5 25 14 34 48 46 58 20 61 20 74 -16z m-4834 -225 c-17
-18 -29 -11 -21 11 4 9 13 13 21 10 14 -5 14 -8 0 -21z m-709 -1 c-3 -3 -11 0
-18 7 -9 10 -8 11 6 5 10 -3 15 -9 12 -12z m5355 -132 c-8 -5 -19 -10 -25 -10
-5 0 -3 5 5 10 8 5 20 10 25 10 6 0 3 -5 -5 -10z m-5510 -65 c0 -2 -9 -9 -20
-15 -15 -8 -20 -8 -20 3 0 7 9 13 20 14 11 1 20 0 20 -2z m-983 -80 c0 -8 -4
-12 -9 -9 -5 3 -6 10 -3 15 9 13 12 11 12 -6z m659 -11 c-3 -9 -12 -14 -21
-10 -8 3 -15 1 -15 -4 0 -6 -9 -10 -21 -10 -36 0 -19 34 21 40 42 7 44 6 36
-16z m518 -19 c-27 -20 -51 -20 -34 0 7 8 22 15 33 15 20 0 20 0 1 -15z m501
-5 c3 -5 -1 -10 -9 -10 -9 0 -16 5 -16 10 0 6 4 10 9 10 6 0 13 -4 16 -10z
m1788 -44 c4 -10 1 -13 -9 -9 -7 3 -14 9 -14 14 0 14 17 10 23 -5z m-1953 0
c0 -2 -7 -6 -15 -10 -8 -3 -15 -1 -15 4 0 6 7 10 15 10 8 0 15 -2 15 -4z
m2011 -16 c9 0 20 -7 23 -16 3 -8 10 -13 15 -9 5 3 12 1 16 -5 7 -11 0 -12
-32 -4 -13 4 -20 10 -17 15 3 5 -6 9 -20 9 -18 0 -26 5 -26 17 0 13 3 14 12 5
7 -7 20 -12 29 -12z m53 -9 c-2 -3 -12 3 -22 13 -16 17 -16 18 5 5 12 -7 20
-15 17 -18z m-214 9 c0 -5 -2 -10 -4 -10 -3 0 -8 5 -11 10 -3 6 -1 10 4 10 6
0 11 -4 11 -10z m102 -14 c26 -5 35 -11 32 -21 -3 -7 -14 -12 -24 -10 -13 2
-17 -1 -14 -10 3 -7 -4 -18 -15 -24 -26 -14 -34 -14 -25 2 5 7 0 6 -11 -3 -18
-14 -18 -15 3 -18 12 -2 22 -7 22 -11 0 -4 7 -8 14 -8 8 0 14 5 13 11 -1 6 8
15 21 21 12 5 22 13 22 17 0 15 21 8 63 -23 36 -27 38 -31 15 -25 -14 3 -33 9
-42 12 -21 8 -13 -33 11 -53 17 -13 16 -14 -7 -7 -14 3 -40 13 -59 20 -18 8
-37 12 -41 9 -5 -3 -11 -1 -15 5 -4 6 -11 8 -16 5 -5 -4 -9 -2 -9 3 0 6 -16
10 -36 10 -34 0 -81 32 -67 46 4 3 1 6 -5 6 -6 0 -14 -5 -18 -11 -4 -8 -9 -7
-15 2 -5 8 -3 17 4 21 19 12 57 9 57 -4 1 -8 6 -6 14 5 7 9 24 17 37 17 19 0
21 2 9 10 -13 9 -13 11 -1 19 8 5 22 6 30 2 9 -5 33 -11 53 -15z m-3311 -39
c-8 -8 -11 -3 -11 19 1 25 2 27 11 11 8 -14 8 -22 0 -30z m1174 23 c3 -5 1
-10 -4 -10 -6 0 -11 5 -11 10 0 6 2 10 4 10 3 0 8 -4 11 -10z m-1297 -37 c-2
-10 -10 -17 -16 -15 -7 1 -21 -2 -32 -8 -11 -6 -21 -6 -24 -1 -8 12 20 34 33
27 5 -4 12 -2 16 4 10 17 27 11 23 -7z m3222 -12 c0 -5 -11 -8 -23 -7 -17 1
-23 6 -19 18 3 14 8 15 23 7 10 -5 19 -14 19 -18z m-2086 2 c-20 -15 -34 -17
-34 -5 0 13 7 18 30 18 20 0 20 -1 4 -13z m1823 11 c-3 -3 -12 -4 -19 -1 -8 3
-5 6 6 6 11 1 17 -2 13 -5z m633 -26 c0 -12 -12 -9 -32 6 -26 19 -22 27 7 14
14 -6 25 -15 25 -20z m-445 12 c-3 -5 -12 -10 -18 -10 -7 0 -6 4 3 10 19 12
23 12 15 0z m-196 -45 c0 -5 -4 -3 -9 5 -8 13 -10 12 -10 -2 0 -10 5 -18 10
-18 6 0 10 -7 10 -15 0 -19 -9 -19 -32 2 -23 20 -23 49 0 62 17 9 30 -4 31
-34z m-3174 -5 c3 0 5 8 3 17 -2 10 4 19 15 21 21 4 22 -11 1 -33 -12 -11 -20
-13 -29 -5 -9 8 -17 6 -29 -5 -15 -15 -16 -14 -16 9 0 30 31 40 42 14 4 -10
10 -18 13 -18z m3499 15 c-4 -8 -10 -15 -15 -15 -5 0 -9 7 -9 15 0 8 7 15 15
15 9 0 12 -6 9 -15z m-2334 -9 c0 -3 -4 -8 -10 -11 -5 -3 -10 -1 -10 4 0 6 5
11 10 11 6 0 10 -2 10 -4z m2253 -11 c17 -12 15 -13 -17 -11 -20 2 -40 7 -44
11 -4 5 1 5 11 2 9 -4 17 -2 17 3 0 14 12 12 33 -5z m387 -5 c0 -5 -5 -10 -11
-10 -5 0 -7 5 -4 10 3 6 8 10 11 10 2 0 4 -4 4 -10z m-3972 -17 c-2 -10 -7
-18 -12 -18 -5 0 -10 8 -12 18 -1 9 4 17 13 17 8 0 13 -7 11 -17z m3502 7 c0
-5 -4 -10 -10 -10 -5 0 -10 5 -10 10 0 6 5 10 10 10 6 0 10 -4 10 -10z m320
-6 c0 -2 -16 -4 -35 -4 -19 0 -35 4 -35 8 0 4 16 6 35 4 19 -2 35 -6 35 -8z
m-3880 -14 c0 -11 -7 -20 -15 -20 -17 0 -18 2 -9 24 9 23 24 20 24 -4z m3740
0 c0 -5 -4 -10 -10 -10 -5 0 -10 5 -10 10 0 6 5 10 10 10 6 0 10 -4 10 -10z
m-3157 -14 c6 -16 -2 -28 -14 -20 -12 7 -11 34 0 34 5 0 11 -6 14 -14z m3006
5 c2 -1 -2 -7 -8 -14 -6 -8 -8 -17 -4 -21 4 -4 0 -4 -9 -1 -21 8 -20 44 2 40
8 -2 17 -4 19 -4z m338 -26 c0 -12 -3 -12 -16 -2 -12 9 -13 9 -7 0 8 -15 5
-16 -19 -7 -13 5 -14 8 -3 15 21 14 45 10 45 -6z m50 -26 c11 0 13 -3 5 -6
-17 -7 -42 15 -41 36 0 11 3 9 9 -6 5 -13 17 -23 27 -24z m-3530 16 c0 -8 -4
-15 -9 -15 -4 0 -8 7 -8 15 0 8 4 15 8 15 5 0 9 -7 9 -15z m-56 -28 c-16 -16
-26 0 -10 19 9 11 15 12 17 4 2 -6 -1 -17 -7 -23z m3284 13 c3 -6 -4 -10 -17
-10 -18 0 -20 2 -8 10 19 12 18 12 25 0z m-4015 -20 c0 -11 -7 -20 -15 -20 -8
0 -15 9 -15 20 0 11 7 20 15 20 8 0 15 -9 15 -20z m595 -13 c-4 -8 -24 -19
-46 -25 -36 -9 -39 -8 -39 10 0 17 5 20 29 16 17 -2 28 -1 25 3 -2 4 4 9 13
11 23 5 25 4 18 -15z m3359 7 c9 -3 16 -10 16 -15 0 -10 -31 -12 -55 -3 -13 5
-14 8 -3 15 16 10 22 11 42 3z m-3554 -48 c0 -7 -6 -19 -14 -25 -12 -10 -14
-9 -11 6 2 10 4 21 4 26 2 13 21 7 21 -7z m-50 -20 c0 -8 -9 -16 -20 -19 -15
-4 -20 0 -20 13 0 18 18 31 33 23 4 -2 7 -10 7 -17z m3630 14 c0 -5 -4 -10
-10 -10 -5 0 -10 5 -10 10 0 6 5 10 10 10 6 0 10 -4 10 -10z m-3064 -38 c-14
-14 -17 -14 -14 -2 3 17 20 31 27 24 3 -2 -3 -12 -13 -22z m2974 18 c0 -5 -6
-10 -14 -10 -8 0 -18 5 -21 10 -3 6 3 10 14 10 12 0 21 -4 21 -10z m-3690 -30
c0 -15 -7 -20 -26 -20 -14 0 -34 -5 -45 -10 -16 -9 -19 -7 -19 10 0 25 25 37
45 20 12 -10 16 -9 21 4 9 22 24 20 24 -4z m-200 -44 c0 -14 -27 -42 -34 -35
-2 2 0 14 5 27 9 24 29 30 29 8z m-46 -4 c3 -5 -8 -16 -25 -26 -29 -17 -35
-12 -23 18 6 17 39 22 48 8z m3681 -22 c-3 -5 -14 -10 -23 -10 -15 0 -15 2 -2
10 20 13 33 13 25 0z m-1033 -130 c37 -17 79 -30 102 -30 39 0 106 -19 106
-30 0 -3 -28 -3 -62 -2 -35 2 -60 1 -57 -2 7 -7 26 -11 109 -20 71 -8 240 -67
240 -84 0 -8 -9 -11 -22 -8 -13 3 -54 7 -93 10 l-70 5 43 -17 c24 -10 42 -22
40 -28 -2 -5 -27 -8 -55 -7 -55 3 -69 -11 -39 -36 8 -7 12 -22 9 -34 -16 -71
-26 -88 -63 -107 -51 -26 -89 -25 -178 2 -64 20 -81 31 -128 80 -59 61 -66 63
-139 33 -24 -11 -35 -21 -31 -30 4 -11 1 -13 -12 -6 -23 11 -86 31 -100 31 -6
0 -28 -11 -48 -25 -44 -30 -65 -26 -111 18 -87 82 -1 176 217 236 39 11 87 30
106 41 31 20 94 36 151 39 11 0 50 -12 85 -29z m349 -270 c5 0 9 -4 9 -9 0
-12 -38 -2 -47 12 -4 7 0 8 11 4 10 -4 22 -7 27 -7z m53 -19 c4 -5 -1 -8 -9
-7 -21 3 -31 16 -12 16 9 0 18 -4 21 -9z m61 -133 c-12 -30 -279 -59 -545 -60
-122 0 -260 28 -260 53 0 17 48 19 170 7 187 -18 544 -15 595 4 45 17 48 17
40 -4z"/>
<path d="M1600 10436 c0 -2 7 -7 16 -10 8 -3 12 -2 9 4 -6 10 -25 14 -25 6z"/>
<path d="M1700 10432 c0 -6 -8 -13 -17 -15 -16 -4 -16 -5 -1 -6 18 -1 34 16
24 26 -3 4 -6 1 -6 -5z"/>
<path d="M1743 10434 c-18 -8 38 -62 67 -66 14 -2 26 2 27 7 1 6 -7 9 -17 7
-23 -4 -26 8 -7 27 10 11 8 11 -9 0 -18 -10 -24 -10 -37 3 -9 9 -13 18 -10 22
7 7 4 7 -14 0z"/>
<path d="M1580 10421 c0 -5 7 -11 15 -15 8 -3 15 -1 15 3 0 5 -7 11 -15 15 -8
3 -15 1 -15 -3z"/>
<path d="M1707 10403 c-10 -9 -9 -33 1 -33 4 0 8 9 8 20 0 23 0 22 -9 13z"/>
<path d="M1904 10398 c-4 -7 -4 -10 1 -6 4 4 14 0 22 -10 13 -15 13 -15 3 6
-12 25 -16 27 -26 10z"/>
<path d="M1730 10380 c0 -5 5 -10 11 -10 5 0 7 5 4 10 -3 6 -8 10 -11 10 -2 0
-4 -4 -4 -10z"/>
<path d="M2035 10380 c3 -5 8 -10 11 -10 2 0 4 5 4 10 0 6 -5 10 -11 10 -5 0
-7 -4 -4 -10z"/>
<path d="M2083 10373 c0 -9 4 -10 14 -2 7 6 13 12 13 14 0 1 -6 2 -13 2 -8 0
-14 -6 -14 -14z"/>
<path d="M2156 10372 c-3 -6 -2 -13 4 -17 5 -3 10 -3 10 1 0 4 6 0 13 -11 10
-13 16 -15 21 -6 5 7 5 15 2 18 -3 4 -6 1 -6 -6 0 -7 -8 -3 -18 10 -12 14 -21
18 -26 11z"/>
<path d="M1960 10345 c0 -15 6 -21 24 -21 15 0 22 5 19 13 -3 7 -10 10 -15 7
-6 -4 -14 0 -19 7 -7 11 -9 9 -9 -6z"/>
<path d="M1859 10337 c15 -15 43 -18 38 -4 -2 7 -14 13 -26 13 -16 1 -19 -2
-12 -9z"/>
<path d="M2140 10331 c-8 -6 -18 -7 -24 -4 -5 3 -6 1 -2 -5 10 -16 24 -15 42
3 17 17 7 20 -16 6z"/>
<path d="M1130 9915 c0 -10 10 -15 26 -15 22 0 25 2 14 15 -7 8 -19 15 -26 15
-8 0 -14 -7 -14 -15z"/>
<path d="M910 9946 c0 -17 24 -38 33 -29 15 15 6 43 -13 43 -11 0 -20 -6 -20
-14z"/>
<path d="M1450 9945 c0 -8 5 -15 10 -15 6 0 10 7 10 15 0 8 -4 15 -10 15 -5 0
-10 -7 -10 -15z"/>
<path d="M13389 5444 c-16 -20 7 -25 25 -5 14 15 14 18 1 18 -8 0 -20 -6 -26
-13z"/>
<path d="M11067 5509 c7 -7 15 -10 18 -7 3 3 -2 9 -12 12 -14 6 -15 5 -6 -5z"/>
<path d="M11250 4971 c0 -6 4 -13 10 -16 6 -3 7 1 4 9 -7 18 -14 21 -14 7z"/>
<path d="M13505 3910 c-3 -6 1 -7 9 -4 18 7 21 14 7 14 -6 0 -13 -4 -16 -10z"/>
<path d="M12696 2703 c-12 -12 -6 -25 8 -20 8 3 16 1 19 -6 2 -8 5 -8 10 0 8
13 -26 37 -37 26z"/>
<path d="M13204 2289 c-8 -14 11 -33 25 -25 6 4 11 15 11 24 0 13 -2 13 -15
-4 -13 -16 -14 -16 -9 -1 7 19 -1 23 -12 6z"/>
<path d="M11186 1362 c-3 -5 1 -9 9 -9 8 0 12 4 9 9 -3 4 -7 8 -9 8 -2 0 -6
-4 -9 -8z"/>
<path d="M11188 1333 c6 -2 18 -2 25 0 6 3 1 5 -13 5 -14 0 -19 -2 -12 -5z"/>
<path d="M11126 1296 c3 -9 13 -16 22 -16 8 0 13 1 11 3 -2 1 -12 9 -22 16
-15 12 -17 12 -11 -3z"/>
<path d="M11270 1260 c0 -5 5 -10 10 -10 6 0 10 5 10 10 0 6 -4 10 -10 10 -5
0 -10 -4 -10 -10z"/>
<path d="M9545 760 c28 -12 37 -12 30 0 -3 6 -16 10 -28 9 -21 0 -21 -1 -2 -9z"/>
<path d="M9600 600 c-34 -8 -36 -31 -5 -60 21 -20 28 -22 50 -12 14 7 40 12
58 12 54 0 63 14 27 40 -33 23 -84 31 -130 20z"/>
<path d="M40 9403 c0 -5 7 -16 14 -26 12 -16 14 -16 20 -1 10 26 7 34 -14 34
-11 0 -20 -3 -20 -7z"/>
<path d="M360 9372 c0 -15 28 -47 35 -40 11 11 -5 48 -21 48 -8 0 -14 -4 -14
-8z"/>
<path d="M414 9318 c3 -13 6 -26 6 -30 0 -5 7 -8 15 -8 17 0 18 4 9 38 -4 12
-13 22 -21 22 -11 0 -14 -6 -9 -22z"/>
<path d="M54 9316 c-9 -23 7 -38 26 -26 13 8 13 11 -2 26 -16 17 -18 17 -24 0z"/>
<path d="M1778 9323 c-24 -6 -23 -35 2 -56 24 -20 26 -35 5 -43 -8 -4 -13 -10
-10 -14 6 -10 45 -4 57 8 12 12 -1 42 -19 42 -9 0 -13 6 -9 15 3 8 1 15 -3 15
-5 0 -7 9 -4 20 3 11 4 19 2 19 -2 -1 -12 -3 -21 -6z"/>
<path d="M1032 9301 c2 -7 7 -12 11 -12 12 1 9 15 -3 20 -7 2 -11 -2 -8 -8z"/>
<path d="M1668 9298 c-7 -17 8 -46 18 -35 4 4 3 17 -3 29 -7 17 -11 19 -15 6z"/>
<path d="M2166 9295 c-14 -14 -14 -17 2 -33 16 -17 18 -17 33 8 9 14 14 28 12
33 -7 12 -31 8 -47 -8z"/>
<path d="M2318 9288 c-16 -16 -54 -15 -43 1 2 4 -2 8 -10 8 -14 0 -19 -16 -16
-44 2 -12 -16 -12 -36 0 -9 6 -13 2 -13 -12 0 -11 -8 -24 -17 -30 -16 -8 -14
-11 11 -22 24 -11 30 -11 40 3 9 12 17 14 29 7 14 -8 19 -5 26 12 l8 23 18
-27 c16 -25 55 -41 39 -16 -4 8 6 9 34 6 l40 -6 6 41 c8 51 -3 65 -56 70 -31
3 -47 -1 -60 -14z"/>
<path d="M507 9293 c-12 -11 -8 -23 8 -23 8 0 15 7 15 15 0 16 -12 20 -23 8z"/>
<path d="M2573 9285 c-23 -16 -21 -50 3 -59 8 -3 14 -4 14 -3 0 1 4 17 9 34
11 39 2 48 -26 28z"/>
<path d="M835 9281 c-3 -5 -1 -12 5 -16 5 -3 10 1 10 9 0 18 -6 21 -15 7z"/>
<path d="M1570 9270 c0 -6 7 -10 15 -10 8 0 15 2 15 4 0 2 -7 6 -15 10 -8 3
-15 1 -15 -4z"/>
<path d="M3219 9264 c-6 -34 -2 -114 5 -114 5 0 18 8 29 18 11 9 17 11 13 5
-5 -9 0 -13 13 -13 12 0 21 -5 21 -11 0 -6 6 -9 14 -6 8 3 17 3 20 -1 14 -13
54 -12 66 3 15 18 43 19 73 3 21 -11 21 -10 7 7 -11 14 -11 17 -1 11 8 -5 16
-3 22 5 4 7 11 10 16 6 4 -5 1 -12 -6 -16 -7 -5 -10 -14 -7 -20 4 -6 11 -9 16
-6 5 3 19 1 31 -6 12 -6 19 -7 15 -1 -3 6 -2 12 4 14 6 2 6 17 -2 43 -6 22
-11 43 -10 47 1 4 -14 6 -34 4 -19 -1 -37 1 -40 6 -3 4 -14 4 -24 -2 -13 -7
-20 -6 -24 3 -5 9 -7 9 -12 -1 -3 -6 -10 -9 -15 -6 -6 3 -8 -10 -5 -32 2 -24
-1 -43 -10 -52 -15 -14 -38 -7 -29 9 4 5 0 9 -7 9 -10 1 -9 4 2 13 16 13 20
50 7 63 -4 4 -31 8 -60 9 -28 0 -60 4 -69 9 -10 4 -19 4 -19 0z"/>
<path d="M2591 9212 c-12 -18 -21 -32 -19 -33 52 -12 69 3 51 43 -9 21 -10 20
-32 -10z"/>
<path d="M3882 9224 c-15 -17 -15 -27 2 -36 8 -4 12 -19 9 -35 -4 -25 -2 -24
16 10 20 39 19 62 -2 70 -7 2 -18 -2 -25 -9z"/>
<path d="M3979 9211 c-14 -12 -19 -20 -10 -21 10 0 12 -10 7 -44 -4 -25 -3
-47 2 -50 16 -10 30 17 28 54 -2 19 2 41 7 48 19 24 -8 35 -34 13z"/>
<path d="M4065 9211 c-19 -6 -21 -11 -16 -67 1 -11 7 -15 19 -12 18 5 45 -15
35 -26 -3 -3 4 -4 16 -1 11 2 28 -3 36 -11 17 -17 18 -14 19 36 1 23 5 34 14
32 8 -1 11 2 7 8 -3 6 -12 7 -18 4 -9 -5 -9 -4 0 6 9 10 8 16 -4 28 -14 14
-17 14 -27 1 -11 -14 -46 -14 -56 0 -3 4 -14 5 -25 2z"/>
<path d="M4510 9187 c-24 -13 -28 -27 -16 -72 2 -11 5 -23 5 -27 1 -10 41 -10
41 -1 0 4 -12 20 -27 36 -17 17 -22 27 -13 25 9 -2 14 4 14 15 -1 9 4 17 12
17 7 0 16 5 19 10 8 14 -5 12 -35 -3z"/>
<path d="M42 9178 c-18 -18 -15 -43 8 -63 14 -13 17 -22 10 -30 -17 -21 20
-28 41 -9 21 19 25 64 9 95 -12 21 -50 25 -68 7z m43 -28 c-3 -5 -10 -10 -16
-10 -5 0 -9 5 -9 10 0 6 7 10 16 10 8 0 12 -4 9 -10z"/>
<path d="M396 9161 c-4 -6 0 -21 8 -33 10 -16 12 -28 6 -38 -16 -26 -11 -40
15 -40 26 0 32 9 16 26 -5 5 -11 27 -13 48 -3 38 -20 57 -32 37z"/>
<path d="M494 9145 c-4 -18 -1 -32 11 -45 10 -11 15 -26 12 -35 -9 -21 16 -19
36 3 21 23 22 51 1 80 -21 30 -52 29 -60 -3z m46 -16 c0 -5 -7 -9 -15 -9 -15
0 -20 12 -9 23 8 8 24 -1 24 -14z"/>
<path d="M4239 9168 c-13 -33 8 -72 30 -58 18 11 9 54 -11 58 -10 2 -19 2 -19
0z"/>
<path d="M4565 9159 c-11 -4 -14 -8 -7 -8 6 -1 12 -12 12 -25 0 -35 26 -59 51
-46 10 6 19 8 19 4 0 -4 8 0 18 9 14 13 21 14 30 5 7 -7 12 -8 12 -4 0 5 7 3
15 -4 9 -7 22 -9 32 -5 10 5 24 9 32 11 20 4 49 34 33 34 -7 0 -11 4 -7 9 7
13 -23 21 -60 17 -16 -2 -38 1 -49 6 -13 7 -21 6 -26 -2 -4 -6 -9 -11 -11 -10
-31 10 -79 15 -94 9z"/>
<path d="M5016 9162 c-4 -7 -5 -12 -1 -12 3 0 1 -10 -6 -21 -6 -12 -14 -18
-18 -13 -9 12 -48 34 -62 34 -7 0 -17 -6 -23 -13 -6 -7 -10 -11 -9 -8 3 6 -25
31 -35 31 -6 0 -17 -17 -25 -37 -9 -21 -16 -32 -16 -25 -1 7 -6 10 -12 7 -13
-9 -7 -28 12 -31 7 -1 21 -5 30 -9 9 -3 23 1 32 9 9 10 23 13 34 9 16 -6 17
-5 3 13 -14 18 -14 18 3 5 16 -13 20 -13 28 0 8 12 10 12 18 0 5 -7 14 -10 20
-7 6 4 11 3 11 -3 0 -5 -8 -12 -17 -14 -11 -3 -7 -5 10 -6 15 0 27 -6 27 -13
0 -21 30 16 35 43 6 29 -3 61 -15 54 -5 -3 -10 0 -12 7 -3 9 -6 9 -12 0z"/>
<path d="M732 9148 c6 -16 36 -34 44 -25 9 9 -15 37 -33 37 -8 0 -13 -5 -11
-12z"/>
<path d="M853 9123 c3 -16 8 -38 12 -50 6 -18 3 -23 -9 -23 -10 0 -15 -4 -12
-9 3 -5 15 -7 26 -4 15 4 20 14 20 40 0 38 -15 73 -31 73 -7 0 -9 -11 -6 -27z"/>
<path d="M945 9140 c-3 -4 4 -10 15 -13 22 -6 28 -27 7 -27 -7 0 -18 5 -25 12
-16 16 -15 6 2 -28 8 -15 13 -31 10 -36 -13 -20 27 -5 41 16 13 19 13 29 4 49
-11 25 -45 42 -54 27z"/>
<path d="M1042 9128 c-18 -18 -15 -35 9 -52 13 -9 19 -21 16 -30 -9 -22 6 -20
26 2 40 44 -9 122 -51 80z m38 -18 c0 -5 -4 -10 -10 -10 -5 0 -10 5 -10 10 0
6 5 10 10 10 6 0 10 -4 10 -10z"/>
<path d="M1173 9123 c9 -9 20 -13 24 -9 4 4 1 11 -7 16 -25 16 -35 11 -17 -7z"/>
<path d="M2 9105 c0 -16 2 -22 5 -12 2 9 2 23 0 30 -3 6 -5 -1 -5 -18z"/>
<path d="M1492 9100 c7 -11 16 -20 20 -20 5 0 8 9 8 20 0 13 -7 20 -20 20 -18
0 -19 -2 -8 -20z"/>
<path d="M1680 9111 c0 -6 5 -13 10 -16 15 -9 12 -45 -5 -51 -8 -4 -15 -14
-15 -24 0 -20 23 -32 44 -24 8 3 11 14 9 28 -3 13 0 32 5 43 13 24 -2 53 -28
53 -11 0 -20 -4 -20 -9z"/>
<path d="M1798 9113 c-10 -2 -18 -11 -18 -19 0 -8 -4 -14 -9 -14 -11 0 -21
-35 -12 -46 3 -5 23 -18 44 -29 33 -17 39 -18 47 -5 11 17 3 89 -12 108 -11
12 -12 13 -40 5z"/>
<path d="M1573 9103 c-7 -2 -13 -22 -13 -43 0 -46 26 -68 60 -50 24 13 25 20
3 65 -16 34 -25 39 -50 28z m38 -56 c-1 -12 -15 -9 -19 4 -3 6 1 10 8 8 6 -3
11 -8 11 -12z"/>
<path d="M1163 9063 c-26 -30 -22 -43 13 -43 21 0 23 3 14 19 -5 11 -7 27 -4
35 8 22 3 19 -23 -11z"/>
<path d="M713 9064 c-3 -9 0 -20 8 -25 17 -11 21 -11 38 0 12 8 12 12 -2 25
-20 20 -36 20 -44 0z"/>
<path d="M1467 9043 c-21 -21 8 -48 38 -36 14 5 14 8 -1 24 -18 20 -27 23 -37
12z"/>
<path d="M3894 8988 c-3 -4 -1 -15 4 -24 8 -14 11 -14 18 -3 5 8 9 19 10 25 2
12 -24 15 -32 2z"/>
<path d="M4170 8920 c0 -5 -8 -11 -17 -13 -12 -3 -8 -5 9 -6 30 -1 46 14 23
23 -8 3 -15 1 -15 -4z"/>
</g>
</svg>
